<svg width="51" height="50" viewBox="0 0 51 50" fill="none" xmlns="http://www.w3.org/2000/svg">
<circle cx="26" cy="25" r="24" stroke="#2289FF" stroke-width="2"/>
<path d="M14 16H18L20.68 29.39C20.7714 29.8504 21.0219 30.264 21.3875 30.5583C21.7532 30.8526 22.2107 31.009 22.68 31H32.4C32.8693 31.009 33.3268 30.8526 33.6925 30.5583C34.0581 30.264 34.3086 29.8504 34.4 29.39L36 21H19M23 36C23 36.5523 22.5523 37 22 37C21.4477 37 21 36.5523 21 36C21 35.4477 21.4477 35 22 35C22.5523 35 23 35.4477 23 36ZM34 36C34 36.5523 33.5523 37 33 37C32.4477 37 32 36.5523 32 36C32 35.4477 32.4477 35 33 35C33.5523 35 34 35.4477 34 36Z" stroke="#2289FF" stroke-width="2" stroke-linecap="round" stroke-linejoin="round"/>
</svg>
