<svg width="51" height="50" viewBox="0 0 51 50" fill="none" xmlns="http://www.w3.org/2000/svg">
<circle cx="26" cy="25" r="24" stroke="#2289FF" stroke-width="2"/>
<path d="M35 23C35 30 26 36 26 36C26 36 17 30 17 23C17 20.6131 17.9482 18.3239 19.636 16.636C21.3239 14.9482 23.6131 14 26 14C28.3869 14 30.6761 14.9482 32.364 16.636C34.0518 18.3239 35 20.6131 35 23Z" stroke="#2289FF" stroke-width="2" stroke-linecap="round" stroke-linejoin="round"/>
<path d="M26 26C27.6569 26 29 24.6569 29 23C29 21.3431 27.6569 20 26 20C24.3431 20 23 21.3431 23 23C23 24.6569 24.3431 26 26 26Z" stroke="#2289FF" stroke-width="2" stroke-linecap="round" stroke-linejoin="round"/>
</svg>
