<svg width="20" height="25" viewBox="0 0 20 25" fill="none" xmlns="http://www.w3.org/2000/svg">
<path d="M19 10.8564C19 17.8564 10 23.8564 10 23.8564C10 23.8564 1 17.8564 1 10.8564C1 8.4695 1.94821 6.18031 3.63604 4.49248C5.32387 2.80466 7.61305 1.85645 10 1.85645C12.3869 1.85645 14.6761 2.80466 16.364 4.49248C18.0518 6.18031 19 8.4695 19 10.8564Z" stroke="white" stroke-width="2" stroke-linecap="round" stroke-linejoin="round"/>
<path d="M10 13.8564C11.6569 13.8564 13 12.5133 13 10.8564C13 9.19959 11.6569 7.85645 10 7.85645C8.34315 7.85645 7 9.19959 7 10.8564C7 12.5133 8.34315 13.8564 10 13.8564Z" stroke="white" stroke-width="2" stroke-linecap="round" stroke-linejoin="round"/>
</svg>
