<svg width="186" height="50" viewBox="0 0 186 50" fill="none" xmlns="http://www.w3.org/2000/svg">
<path d="M0 32.8271H186" stroke="white" stroke-width="2"/>
<mask id="path-2-inside-1_515:870" fill="white">
<path d="M0.388428 47.1658V38.7346H6.51012V47.1658H5.49364V39.6675H1.41632V47.1658H0.388428ZM13.459 40.7184C14.2128 40.7184 14.8181 40.99 15.275 41.5332C15.74 42.0764 15.9716 42.8951 15.9716 43.9893C15.9716 45.0678 15.74 45.8865 15.275 46.4455C14.8181 47.0044 14.2095 47.2838 13.4476 47.2838C12.9761 47.2838 12.5837 47.1933 12.2712 47.0123C11.9669 46.8233 11.7271 46.6068 11.5517 46.3628H11.4832C11.4987 46.4967 11.5142 46.6659 11.5289 46.8706C11.5444 47.0753 11.5517 47.2524 11.5517 47.4019V49.9998H10.5466V40.8365H11.369L11.506 41.6985H11.5517C11.7344 41.4229 11.9743 41.1907 12.2712 41.0018C12.5682 40.8129 12.9646 40.7184 13.459 40.7184ZM13.2763 41.5922C12.6522 41.5922 12.2109 41.7733 11.9514 42.1354C11.7002 42.4975 11.5672 43.0486 11.5517 43.7886V43.9893C11.5517 44.7687 11.6741 45.3709 11.9172 45.796C12.1684 46.2133 12.6294 46.4218 13.2991 46.4218C13.6727 46.4218 13.977 46.3156 14.2128 46.103C14.4567 45.8905 14.6354 45.6031 14.7496 45.241C14.872 44.871 14.9323 44.4498 14.9323 43.9775C14.9323 43.2532 14.7953 42.6746 14.5212 42.2417C14.2552 41.8087 13.84 41.5922 13.2763 41.5922ZM24.8368 43.9893C24.8368 45.0363 24.5782 45.8472 24.0602 46.4218C23.5503 46.9965 22.8577 47.2838 21.9816 47.2838C21.4415 47.2838 20.9577 47.1579 20.5311 46.906C20.1126 46.6462 19.7814 46.2723 19.5375 45.7842C19.2943 45.2882 19.172 44.69 19.172 43.9893C19.172 42.9423 19.4273 42.1354 19.9372 41.5686C20.4479 41.0018 21.1405 40.7184 22.0158 40.7184C22.5722 40.7184 23.0592 40.8483 23.4777 41.1081C23.9044 41.36 24.2356 41.73 24.4714 42.2181C24.7153 42.6982 24.8368 43.2887 24.8368 43.9893ZM20.2113 43.9893C20.2113 44.7372 20.3524 45.3315 20.6339 45.7724C20.9235 46.2053 21.3803 46.4218 22.0044 46.4218C22.6211 46.4218 23.0747 46.2053 23.3635 45.7724C23.6531 45.3315 23.7975 44.7372 23.7975 43.9893C23.7975 43.2414 23.6531 42.655 23.3635 42.2299C23.0747 41.8048 22.6179 41.5922 21.993 41.5922C21.3689 41.5922 20.9161 41.8048 20.6339 42.2299C20.3524 42.655 20.2113 43.2414 20.2113 43.9893ZM34.9387 40.8365V47.1658H34.0365V43.1273C34.0365 42.962 34.0406 42.7888 34.0479 42.6077C34.0634 42.4266 34.0781 42.2495 34.0936 42.0764H34.0593L32.0606 47.1658H31.2155L29.2739 42.0764H29.2396C29.2625 42.4306 29.2739 42.7927 29.2739 43.1627V47.1658H28.3716V40.8365H29.7079L31.6381 45.9259L33.6025 40.8365H34.9387ZM38.8341 47.1658V40.8365H39.8392V43.4343H41.4267C42.2189 43.4343 42.8054 43.5839 43.1856 43.883C43.5665 44.1822 43.7566 44.6309 43.7566 45.2292C43.7566 45.8196 43.5706 46.2919 43.197 46.6462C42.8242 46.9926 42.2189 47.1658 41.381 47.1658H38.8341ZM44.7731 47.1658V40.8365H45.7781V47.1658H44.7731ZM41.2897 46.3274C41.7237 46.3274 42.0777 46.2526 42.3518 46.103C42.6259 45.9455 42.763 45.6739 42.763 45.2882C42.763 44.9025 42.6374 44.6427 42.3861 44.5089C42.1348 44.3672 41.7734 44.2963 41.3011 44.2963H39.8392V46.3274H41.2897ZM57.9685 40.8365V47.1658H49.6654V40.8365H50.6704V46.2919H53.3087V40.8365H54.3137V46.2919H56.9634V40.8365H57.9685ZM66.5277 47.1658H65.5113V41.6985H63.7067C63.608 43.0289 63.471 44.1034 63.2956 44.9222C63.1202 45.733 62.8885 46.3234 62.5989 46.6934C62.3093 47.0635 61.9438 47.2484 61.5025 47.2484C61.4038 47.2484 61.3042 47.2406 61.2055 47.2248C61.1142 47.217 61.0383 47.1972 60.9771 47.1658V46.3864C61.0228 46.4022 61.0726 46.414 61.1256 46.4218C61.1786 46.4297 61.2324 46.4336 61.2855 46.4336C61.6966 46.4336 62.0238 45.981 62.2677 45.0757C62.519 44.1704 62.709 42.7573 62.8387 40.8365H66.5277V47.1658ZM72.7767 40.7184C73.3021 40.7184 73.7507 40.8365 74.1244 41.0726C74.5045 41.3088 74.7941 41.6434 74.9924 42.0764C75.198 42.5015 75.3007 43.0014 75.3007 43.576V44.2019H71.1092C71.1239 44.9182 71.2993 45.4654 71.6346 45.8432C71.9772 46.2133 72.4528 46.3982 73.0622 46.3982C73.4505 46.3982 73.7932 46.3628 74.0901 46.2919C74.3944 46.2133 74.7068 46.103 75.0266 45.9613V46.8706C74.7142 47.0123 74.4058 47.1146 74.1015 47.1776C73.7964 47.2484 73.435 47.2838 73.0165 47.2838C72.4373 47.2838 71.9234 47.1618 71.4747 46.9178C71.0325 46.6738 70.6866 46.3116 70.4354 45.8314C70.1915 45.3433 70.0699 44.749 70.0699 44.0484C70.0699 43.3556 70.18 42.7612 70.4011 42.2653C70.6295 41.7693 70.9453 41.3875 71.3491 41.1199C71.7602 40.8523 72.2358 40.7184 72.7767 40.7184ZM72.7653 41.5686C72.2856 41.5686 71.9046 41.73 71.6232 42.0527C71.3491 42.3676 71.1851 42.8085 71.1321 43.3753H74.25C74.2419 42.8399 74.1203 42.407 73.8845 42.0764C73.6479 41.7379 73.2751 41.5686 72.7653 41.5686ZM79.8055 40.8365V43.4697H83.1291V40.8365H84.1341V47.1658H83.1291V44.3436H79.8055V47.1658H78.8005V40.8365H79.8055ZM89.0191 40.8365V43.4697H92.3426V40.8365H93.3476V47.1658H92.3426V44.3436H89.0191V47.1658H88.014V40.8365H89.0191ZM97.2275 47.1658V40.8365H98.2326V43.4343H99.8201C100.612 43.4343 101.199 43.5839 101.579 43.883C101.96 44.1822 102.15 44.6309 102.15 45.2292C102.15 45.8196 101.964 46.2919 101.59 46.6462C101.218 46.9926 100.612 47.1658 99.7744 47.1658H97.2275ZM103.166 47.1658V40.8365H104.172V47.1658H103.166ZM99.6831 46.3274C100.117 46.3274 100.471 46.2526 100.745 46.103C101.019 45.9455 101.156 45.6739 101.156 45.2882C101.156 44.9025 101.031 44.6427 100.779 44.5089C100.528 44.3672 100.167 44.2963 99.6945 44.2963H98.2326V46.3274H99.6831ZM110.423 40.7184C110.948 40.7184 111.397 40.8365 111.771 41.0726C112.151 41.3088 112.44 41.6434 112.639 42.0764C112.844 42.5015 112.947 43.0014 112.947 43.576V44.2019H108.755C108.77 44.9182 108.946 45.4654 109.281 45.8432C109.623 46.2133 110.099 46.3982 110.708 46.3982C111.097 46.3982 111.439 46.3628 111.736 46.2919C112.041 46.2133 112.353 46.103 112.673 45.9613V46.8706C112.36 47.0123 112.052 47.1146 111.748 47.1776C111.443 47.2484 111.081 47.2838 110.663 47.2838C110.084 47.2838 109.57 47.1618 109.121 46.9178C108.679 46.6738 108.333 46.3116 108.082 45.8314C107.838 45.3433 107.716 44.749 107.716 44.0484C107.716 43.3556 107.826 42.7612 108.047 42.2653C108.276 41.7693 108.591 41.3875 108.995 41.1199C109.406 40.8523 109.882 40.7184 110.423 40.7184ZM110.412 41.5686C109.932 41.5686 109.551 41.73 109.269 42.0527C108.995 42.3676 108.831 42.8085 108.778 43.3753H111.896C111.888 42.8399 111.767 42.407 111.531 42.0764C111.294 41.7379 110.921 41.5686 110.412 41.5686ZM129.918 40.742C130.527 40.7971 131.057 40.9624 131.505 41.238C131.962 41.5135 132.316 41.8835 132.568 42.3479C132.819 42.8124 132.944 43.3635 132.944 44.0011C132.944 44.9536 132.674 45.7133 132.134 46.2801C131.601 46.8469 130.863 47.1736 129.918 47.2602V49.9998H128.936V47.2602C128.334 47.2052 127.805 47.0437 127.348 46.7761C126.891 46.5005 126.537 46.1306 126.286 45.6661C126.035 45.1938 125.909 44.6388 125.909 44.0011C125.909 43.0407 126.176 42.2771 126.709 41.7103C127.249 41.1435 128.003 40.8207 128.97 40.742V38.1914H129.918V40.742ZM128.97 41.604C128.27 41.6749 127.759 41.915 127.439 42.3243C127.12 42.7258 126.96 43.2848 126.96 44.0011C126.96 44.7175 127.12 45.2804 127.439 45.6897C127.767 46.099 128.277 46.3392 128.97 46.41V41.604ZM129.918 46.41C130.603 46.3313 131.106 46.0872 131.425 45.6779C131.745 45.2686 131.905 44.7096 131.905 44.0011C131.905 43.2926 131.742 42.7376 131.414 42.3361C131.094 41.9347 130.596 41.6945 129.918 41.6158V46.41ZM137.429 44.6978C137.429 44.7923 137.425 44.934 137.417 45.1229C137.41 45.3119 137.399 45.5008 137.383 45.6897C137.376 45.8787 137.368 46.0282 137.36 46.1384L140.638 40.8365H141.872V47.1658H140.935V43.4343C140.935 43.3084 140.935 43.1431 140.935 42.9384C140.942 42.7337 140.951 42.5329 140.958 42.3361C140.965 42.1314 140.973 41.9779 140.981 41.8756L137.726 47.1658H136.481V40.8365H137.429V44.6978ZM150.421 47.1658H149.405V41.6985H147.6C147.501 43.0289 147.364 44.1034 147.189 44.9222C147.014 45.733 146.782 46.3234 146.492 46.6934C146.203 47.0635 145.837 47.2484 145.396 47.2484C145.297 47.2484 145.198 47.2406 145.099 47.2248C145.008 47.217 144.932 47.1972 144.87 47.1658V46.3864C144.916 46.4022 144.966 46.414 145.019 46.4218C145.072 46.4297 145.126 46.4336 145.179 46.4336C145.59 46.4336 145.917 45.981 146.161 45.0757C146.412 44.1704 146.602 42.7573 146.732 40.8365H150.421V47.1658ZM157.127 43.4343C158.718 43.4343 159.514 44.0326 159.514 45.2292C159.514 45.8196 159.32 46.2919 158.931 46.6462C158.543 46.9926 157.926 47.1658 157.081 47.1658H154.306V40.8365H155.311V43.4343H157.127ZM158.509 45.2882C158.509 44.9025 158.375 44.6427 158.109 44.5089C157.85 44.3672 157.484 44.2963 157.013 44.2963H155.311V46.3274H157.036C157.461 46.3274 157.812 46.2487 158.086 46.0912C158.368 45.9337 158.509 45.6661 158.509 45.2882ZM166.685 41.7103H164.687V47.1658H163.693V41.7103H161.717V40.8365H166.685V41.7103ZM172.745 40.7184C173.499 40.7184 174.104 40.99 174.561 41.5332C175.026 42.0764 175.258 42.8951 175.258 43.9893C175.258 45.0678 175.026 45.8865 174.561 46.4455C174.104 47.0044 173.496 47.2838 172.734 47.2838C172.262 47.2838 171.87 47.1933 171.557 47.0123C171.253 46.8233 171.013 46.6068 170.838 46.3628H170.769C170.785 46.4967 170.8 46.6659 170.815 46.8706C170.83 47.0753 170.838 47.2524 170.838 47.4019V49.9998H169.833V40.8365H170.655L170.792 41.6985H170.838C171.021 41.4229 171.26 41.1907 171.557 41.0018C171.854 40.8129 172.251 40.7184 172.745 40.7184ZM172.562 41.5922C171.938 41.5922 171.497 41.7733 171.238 42.1354C170.986 42.4975 170.853 43.0486 170.838 43.7886V43.9893C170.838 44.7687 170.96 45.3709 171.203 45.796C171.455 46.2133 171.916 46.4218 172.585 46.4218C172.959 46.4218 173.263 46.3156 173.499 46.103C173.743 45.8905 173.922 45.6031 174.036 45.241C174.158 44.871 174.218 44.4498 174.218 43.9775C174.218 43.2532 174.081 42.6746 173.807 42.2417C173.541 41.8087 173.126 41.5922 172.562 41.5922ZM178.802 47.1658V40.8365H179.807V43.4343H181.394C182.185 43.4343 182.772 43.5839 183.153 43.883C183.533 44.1822 183.724 44.6309 183.724 45.2292C183.724 45.8196 183.537 46.2919 183.164 46.6462C182.791 46.9926 182.185 47.1658 181.348 47.1658H178.802ZM184.741 47.1658V40.8365H185.746V47.1658H184.741ZM181.257 46.3274C181.691 46.3274 182.045 46.2526 182.319 46.103C182.593 45.9455 182.73 45.6739 182.73 45.2882C182.73 44.9025 182.605 44.6427 182.354 44.5089C182.102 44.3672 181.74 44.2963 181.269 44.2963H179.807V46.3274H181.257Z"/>
</mask>
<path d="M0.388428 47.1658V38.7346H6.51012V47.1658H5.49364V39.6675H1.41632V47.1658H0.388428ZM13.459 40.7184C14.2128 40.7184 14.8181 40.99 15.275 41.5332C15.74 42.0764 15.9716 42.8951 15.9716 43.9893C15.9716 45.0678 15.74 45.8865 15.275 46.4455C14.8181 47.0044 14.2095 47.2838 13.4476 47.2838C12.9761 47.2838 12.5837 47.1933 12.2712 47.0123C11.9669 46.8233 11.7271 46.6068 11.5517 46.3628H11.4832C11.4987 46.4967 11.5142 46.6659 11.5289 46.8706C11.5444 47.0753 11.5517 47.2524 11.5517 47.4019V49.9998H10.5466V40.8365H11.369L11.506 41.6985H11.5517C11.7344 41.4229 11.9743 41.1907 12.2712 41.0018C12.5682 40.8129 12.9646 40.7184 13.459 40.7184ZM13.2763 41.5922C12.6522 41.5922 12.2109 41.7733 11.9514 42.1354C11.7002 42.4975 11.5672 43.0486 11.5517 43.7886V43.9893C11.5517 44.7687 11.6741 45.3709 11.9172 45.796C12.1684 46.2133 12.6294 46.4218 13.2991 46.4218C13.6727 46.4218 13.977 46.3156 14.2128 46.103C14.4567 45.8905 14.6354 45.6031 14.7496 45.241C14.872 44.871 14.9323 44.4498 14.9323 43.9775C14.9323 43.2532 14.7953 42.6746 14.5212 42.2417C14.2552 41.8087 13.84 41.5922 13.2763 41.5922ZM24.8368 43.9893C24.8368 45.0363 24.5782 45.8472 24.0602 46.4218C23.5503 46.9965 22.8577 47.2838 21.9816 47.2838C21.4415 47.2838 20.9577 47.1579 20.5311 46.906C20.1126 46.6462 19.7814 46.2723 19.5375 45.7842C19.2943 45.2882 19.172 44.69 19.172 43.9893C19.172 42.9423 19.4273 42.1354 19.9372 41.5686C20.4479 41.0018 21.1405 40.7184 22.0158 40.7184C22.5722 40.7184 23.0592 40.8483 23.4777 41.1081C23.9044 41.36 24.2356 41.73 24.4714 42.2181C24.7153 42.6982 24.8368 43.2887 24.8368 43.9893ZM20.2113 43.9893C20.2113 44.7372 20.3524 45.3315 20.6339 45.7724C20.9235 46.2053 21.3803 46.4218 22.0044 46.4218C22.6211 46.4218 23.0747 46.2053 23.3635 45.7724C23.6531 45.3315 23.7975 44.7372 23.7975 43.9893C23.7975 43.2414 23.6531 42.655 23.3635 42.2299C23.0747 41.8048 22.6179 41.5922 21.993 41.5922C21.3689 41.5922 20.9161 41.8048 20.6339 42.2299C20.3524 42.655 20.2113 43.2414 20.2113 43.9893ZM34.9387 40.8365V47.1658H34.0365V43.1273C34.0365 42.962 34.0406 42.7888 34.0479 42.6077C34.0634 42.4266 34.0781 42.2495 34.0936 42.0764H34.0593L32.0606 47.1658H31.2155L29.2739 42.0764H29.2396C29.2625 42.4306 29.2739 42.7927 29.2739 43.1627V47.1658H28.3716V40.8365H29.7079L31.6381 45.9259L33.6025 40.8365H34.9387ZM38.8341 47.1658V40.8365H39.8392V43.4343H41.4267C42.2189 43.4343 42.8054 43.5839 43.1856 43.883C43.5665 44.1822 43.7566 44.6309 43.7566 45.2292C43.7566 45.8196 43.5706 46.2919 43.197 46.6462C42.8242 46.9926 42.2189 47.1658 41.381 47.1658H38.8341ZM44.7731 47.1658V40.8365H45.7781V47.1658H44.7731ZM41.2897 46.3274C41.7237 46.3274 42.0777 46.2526 42.3518 46.103C42.6259 45.9455 42.763 45.6739 42.763 45.2882C42.763 44.9025 42.6374 44.6427 42.3861 44.5089C42.1348 44.3672 41.7734 44.2963 41.3011 44.2963H39.8392V46.3274H41.2897ZM57.9685 40.8365V47.1658H49.6654V40.8365H50.6704V46.2919H53.3087V40.8365H54.3137V46.2919H56.9634V40.8365H57.9685ZM66.5277 47.1658H65.5113V41.6985H63.7067C63.608 43.0289 63.471 44.1034 63.2956 44.9222C63.1202 45.733 62.8885 46.3234 62.5989 46.6934C62.3093 47.0635 61.9438 47.2484 61.5025 47.2484C61.4038 47.2484 61.3042 47.2406 61.2055 47.2248C61.1142 47.217 61.0383 47.1972 60.9771 47.1658V46.3864C61.0228 46.4022 61.0726 46.414 61.1256 46.4218C61.1786 46.4297 61.2324 46.4336 61.2855 46.4336C61.6966 46.4336 62.0238 45.981 62.2677 45.0757C62.519 44.1704 62.709 42.7573 62.8387 40.8365H66.5277V47.1658ZM72.7767 40.7184C73.3021 40.7184 73.7507 40.8365 74.1244 41.0726C74.5045 41.3088 74.7941 41.6434 74.9924 42.0764C75.198 42.5015 75.3007 43.0014 75.3007 43.576V44.2019H71.1092C71.1239 44.9182 71.2993 45.4654 71.6346 45.8432C71.9772 46.2133 72.4528 46.3982 73.0622 46.3982C73.4505 46.3982 73.7932 46.3628 74.0901 46.2919C74.3944 46.2133 74.7068 46.103 75.0266 45.9613V46.8706C74.7142 47.0123 74.4058 47.1146 74.1015 47.1776C73.7964 47.2484 73.435 47.2838 73.0165 47.2838C72.4373 47.2838 71.9234 47.1618 71.4747 46.9178C71.0325 46.6738 70.6866 46.3116 70.4354 45.8314C70.1915 45.3433 70.0699 44.749 70.0699 44.0484C70.0699 43.3556 70.18 42.7612 70.4011 42.2653C70.6295 41.7693 70.9453 41.3875 71.3491 41.1199C71.7602 40.8523 72.2358 40.7184 72.7767 40.7184ZM72.7653 41.5686C72.2856 41.5686 71.9046 41.73 71.6232 42.0527C71.3491 42.3676 71.1851 42.8085 71.1321 43.3753H74.25C74.2419 42.8399 74.1203 42.407 73.8845 42.0764C73.6479 41.7379 73.2751 41.5686 72.7653 41.5686ZM79.8055 40.8365V43.4697H83.1291V40.8365H84.1341V47.1658H83.1291V44.3436H79.8055V47.1658H78.8005V40.8365H79.8055ZM89.0191 40.8365V43.4697H92.3426V40.8365H93.3476V47.1658H92.3426V44.3436H89.0191V47.1658H88.014V40.8365H89.0191ZM97.2275 47.1658V40.8365H98.2326V43.4343H99.8201C100.612 43.4343 101.199 43.5839 101.579 43.883C101.96 44.1822 102.15 44.6309 102.15 45.2292C102.15 45.8196 101.964 46.2919 101.59 46.6462C101.218 46.9926 100.612 47.1658 99.7744 47.1658H97.2275ZM103.166 47.1658V40.8365H104.172V47.1658H103.166ZM99.6831 46.3274C100.117 46.3274 100.471 46.2526 100.745 46.103C101.019 45.9455 101.156 45.6739 101.156 45.2882C101.156 44.9025 101.031 44.6427 100.779 44.5089C100.528 44.3672 100.167 44.2963 99.6945 44.2963H98.2326V46.3274H99.6831ZM110.423 40.7184C110.948 40.7184 111.397 40.8365 111.771 41.0726C112.151 41.3088 112.44 41.6434 112.639 42.0764C112.844 42.5015 112.947 43.0014 112.947 43.576V44.2019H108.755C108.77 44.9182 108.946 45.4654 109.281 45.8432C109.623 46.2133 110.099 46.3982 110.708 46.3982C111.097 46.3982 111.439 46.3628 111.736 46.2919C112.041 46.2133 112.353 46.103 112.673 45.9613V46.8706C112.36 47.0123 112.052 47.1146 111.748 47.1776C111.443 47.2484 111.081 47.2838 110.663 47.2838C110.084 47.2838 109.57 47.1618 109.121 46.9178C108.679 46.6738 108.333 46.3116 108.082 45.8314C107.838 45.3433 107.716 44.749 107.716 44.0484C107.716 43.3556 107.826 42.7612 108.047 42.2653C108.276 41.7693 108.591 41.3875 108.995 41.1199C109.406 40.8523 109.882 40.7184 110.423 40.7184ZM110.412 41.5686C109.932 41.5686 109.551 41.73 109.269 42.0527C108.995 42.3676 108.831 42.8085 108.778 43.3753H111.896C111.888 42.8399 111.767 42.407 111.531 42.0764C111.294 41.7379 110.921 41.5686 110.412 41.5686ZM129.918 40.742C130.527 40.7971 131.057 40.9624 131.505 41.238C131.962 41.5135 132.316 41.8835 132.568 42.3479C132.819 42.8124 132.944 43.3635 132.944 44.0011C132.944 44.9536 132.674 45.7133 132.134 46.2801C131.601 46.8469 130.863 47.1736 129.918 47.2602V49.9998H128.936V47.2602C128.334 47.2052 127.805 47.0437 127.348 46.7761C126.891 46.5005 126.537 46.1306 126.286 45.6661C126.035 45.1938 125.909 44.6388 125.909 44.0011C125.909 43.0407 126.176 42.2771 126.709 41.7103C127.249 41.1435 128.003 40.8207 128.97 40.742V38.1914H129.918V40.742ZM128.97 41.604C128.27 41.6749 127.759 41.915 127.439 42.3243C127.12 42.7258 126.96 43.2848 126.96 44.0011C126.96 44.7175 127.12 45.2804 127.439 45.6897C127.767 46.099 128.277 46.3392 128.97 46.41V41.604ZM129.918 46.41C130.603 46.3313 131.106 46.0872 131.425 45.6779C131.745 45.2686 131.905 44.7096 131.905 44.0011C131.905 43.2926 131.742 42.7376 131.414 42.3361C131.094 41.9347 130.596 41.6945 129.918 41.6158V46.41ZM137.429 44.6978C137.429 44.7923 137.425 44.934 137.417 45.1229C137.41 45.3119 137.399 45.5008 137.383 45.6897C137.376 45.8787 137.368 46.0282 137.36 46.1384L140.638 40.8365H141.872V47.1658H140.935V43.4343C140.935 43.3084 140.935 43.1431 140.935 42.9384C140.942 42.7337 140.951 42.5329 140.958 42.3361C140.965 42.1314 140.973 41.9779 140.981 41.8756L137.726 47.1658H136.481V40.8365H137.429V44.6978ZM150.421 47.1658H149.405V41.6985H147.6C147.501 43.0289 147.364 44.1034 147.189 44.9222C147.014 45.733 146.782 46.3234 146.492 46.6934C146.203 47.0635 145.837 47.2484 145.396 47.2484C145.297 47.2484 145.198 47.2406 145.099 47.2248C145.008 47.217 144.932 47.1972 144.87 47.1658V46.3864C144.916 46.4022 144.966 46.414 145.019 46.4218C145.072 46.4297 145.126 46.4336 145.179 46.4336C145.59 46.4336 145.917 45.981 146.161 45.0757C146.412 44.1704 146.602 42.7573 146.732 40.8365H150.421V47.1658ZM157.127 43.4343C158.718 43.4343 159.514 44.0326 159.514 45.2292C159.514 45.8196 159.32 46.2919 158.931 46.6462C158.543 46.9926 157.926 47.1658 157.081 47.1658H154.306V40.8365H155.311V43.4343H157.127ZM158.509 45.2882C158.509 44.9025 158.375 44.6427 158.109 44.5089C157.85 44.3672 157.484 44.2963 157.013 44.2963H155.311V46.3274H157.036C157.461 46.3274 157.812 46.2487 158.086 46.0912C158.368 45.9337 158.509 45.6661 158.509 45.2882ZM166.685 41.7103H164.687V47.1658H163.693V41.7103H161.717V40.8365H166.685V41.7103ZM172.745 40.7184C173.499 40.7184 174.104 40.99 174.561 41.5332C175.026 42.0764 175.258 42.8951 175.258 43.9893C175.258 45.0678 175.026 45.8865 174.561 46.4455C174.104 47.0044 173.496 47.2838 172.734 47.2838C172.262 47.2838 171.87 47.1933 171.557 47.0123C171.253 46.8233 171.013 46.6068 170.838 46.3628H170.769C170.785 46.4967 170.8 46.6659 170.815 46.8706C170.83 47.0753 170.838 47.2524 170.838 47.4019V49.9998H169.833V40.8365H170.655L170.792 41.6985H170.838C171.021 41.4229 171.26 41.1907 171.557 41.0018C171.854 40.8129 172.251 40.7184 172.745 40.7184ZM172.562 41.5922C171.938 41.5922 171.497 41.7733 171.238 42.1354C170.986 42.4975 170.853 43.0486 170.838 43.7886V43.9893C170.838 44.7687 170.96 45.3709 171.203 45.796C171.455 46.2133 171.916 46.4218 172.585 46.4218C172.959 46.4218 173.263 46.3156 173.499 46.103C173.743 45.8905 173.922 45.6031 174.036 45.241C174.158 44.871 174.218 44.4498 174.218 43.9775C174.218 43.2532 174.081 42.6746 173.807 42.2417C173.541 41.8087 173.126 41.5922 172.562 41.5922ZM178.802 47.1658V40.8365H179.807V43.4343H181.394C182.185 43.4343 182.772 43.5839 183.153 43.883C183.533 44.1822 183.724 44.6309 183.724 45.2292C183.724 45.8196 183.537 46.2919 183.164 46.6462C182.791 46.9926 182.185 47.1658 181.348 47.1658H178.802ZM184.741 47.1658V40.8365H185.746V47.1658H184.741ZM181.257 46.3274C181.691 46.3274 182.045 46.2526 182.319 46.103C182.593 45.9455 182.73 45.6739 182.73 45.2882C182.73 44.9025 182.605 44.6427 182.354 44.5089C182.102 44.3672 181.74 44.2963 181.269 44.2963H179.807V46.3274H181.257Z" fill="white" stroke="white" stroke-width="2" mask="url(#path-2-inside-1_515:870)"/>
<path d="M110.439 21.5142H93.553V18.5677L109.939 18.5972H109.94C110.873 18.5972 111.667 18.3782 112.242 17.8617L112.243 17.8607C112.859 17.3035 113.112 16.4608 113.112 15.4555C113.112 14.4572 112.862 13.6197 112.243 13.0801C111.669 12.5436 110.874 12.3138 109.94 12.3138H99.4259C97.3346 12.3138 95.7746 11.7988 94.6796 10.8327C93.6196 9.86072 93.0537 8.41439 93.0537 6.40688C93.0537 4.39682 93.6209 2.9624 94.6793 2.01163L94.6798 2.01123C95.775 1.02493 97.3347 0.5 99.4259 0.5H115.431V3.44642L99.9261 3.417H99.9252C99.0089 3.417 98.224 3.63715 97.6359 4.14144C97.0098 4.65696 96.7527 5.45655 96.7527 6.40688C96.7527 7.36187 97.0119 8.16515 97.6311 8.69863L97.631 8.69875L97.6408 8.70675C98.2291 9.18829 99.012 9.39676 99.9252 9.39676H110.439C112.529 9.39676 114.075 9.93081 115.15 10.9325L115.149 10.9326L115.156 10.9384C116.233 11.9084 116.811 13.3825 116.811 15.4555C116.811 17.5059 116.234 18.9835 115.152 19.9756L115.152 19.9756L115.15 19.9784C114.075 20.9801 112.529 21.5142 110.439 21.5142ZM122.725 9.2166H118.849V6.7247H122.725H123.225V6.2247V1.92713H126.483V6.2247V6.7247H126.983H132.768V9.2166H126.983H126.483V9.7166V16.5182C126.483 17.2066 126.647 17.8158 127.062 18.252C127.481 18.6929 128.074 18.8704 128.745 18.8704H133.59V21.3623H127.688C126.064 21.3623 124.971 20.948 124.298 20.2198C123.596 19.4388 123.225 18.403 123.225 17.0648V9.7166V9.2166H122.725ZM136.779 17.0648V6.7247H140.038V16.5486C140.038 17.2288 140.202 17.8316 140.619 18.2626C141.039 18.6967 141.631 18.8704 142.3 18.8704H150.17H150.67V18.3704V6.7247H154.076V23.8968C154.076 25.2367 153.704 26.2601 153.004 27.0193L153.004 27.0193L153 27.0236C152.327 27.7709 151.235 28.1943 149.612 28.1943H140.186V25.7024H148.555C149.226 25.7024 149.82 25.5249 150.239 25.084C150.654 24.6478 150.817 24.0386 150.817 23.3502V21.8623V21.3623H150.317H141.242C139.6 21.3623 138.5 20.9387 137.827 20.1939C137.141 19.4118 136.779 18.3839 136.779 17.0648ZM167.255 8.47713L167.258 8.47459C168.608 7.22754 170.518 6.57287 173.057 6.57287H180.399C182.044 6.57287 183.214 6.97851 183.991 7.71176L183.991 7.71186L183.999 7.71947C184.788 8.43125 185.214 9.47491 185.214 10.9312C185.214 12.4282 184.8 13.4636 184.052 14.1343C183.293 14.8144 182.106 15.1984 180.399 15.1984H169.297H168.676L168.809 15.8051C169.034 16.8355 169.502 17.6579 170.245 18.2161C170.983 18.7706 171.937 19.0223 173.057 19.0223H184.451V21.5142H173.057C170.518 21.5142 168.606 20.8691 167.257 19.6416C165.92 18.4067 165.216 16.5748 165.216 14.0587C165.216 11.5197 165.922 9.69021 167.255 8.47713ZM168.844 12.0776L168.676 12.7065H169.327H180.193C180.692 12.7065 181.141 12.548 181.47 12.1819C181.812 11.8242 181.956 11.3561 181.956 10.8401C181.956 10.3391 181.832 9.87134 181.496 9.53179C181.158 9.19133 180.692 9.06478 180.193 9.06478H173.057C171.978 9.06478 171.052 9.3004 170.323 9.81718C169.588 10.3376 169.103 11.1073 168.844 12.0776ZM158.318 21.3623V0.651822H161.577V21.3623H158.318Z" fill="white" stroke="white"/>
<path d="M0.362061 21.8624L9.81869 0.151855H17.0727L26.5293 21.8624H21.4192L19.4222 17.2774H7.46922L5.47217 21.8624H0.362061ZM9.17259 13.33H17.7188L13.6366 3.9474H13.2548L9.17259 13.33ZM46.1727 28.6944V6.22473H35.3064C32.6828 6.22473 30.6368 6.89275 29.1684 8.22878C27.7 9.56481 26.9658 11.498 26.9658 14.0284C26.9658 16.579 27.7 18.5223 29.1684 19.8583C30.6368 21.1944 32.6828 21.8624 35.3064 21.8624H41.9143V28.6944H46.1727ZM35.3064 9.71663H41.9143V18.3705H35.3064C34.0338 18.3705 33.0548 18.0162 32.3696 17.3077C31.7039 16.579 31.371 15.4859 31.371 14.0284C31.371 12.5911 31.7039 11.5183 32.3696 10.8097C33.0548 10.081 34.0338 9.71663 35.3064 9.71663ZM54.2237 21.8624C52.5008 21.8624 51.238 21.417 50.4352 20.5264C49.6521 19.6357 49.2605 18.4818 49.2605 17.0648V6.22473H53.5189V16.5486C53.5189 17.7632 54.1063 18.3705 55.281 18.3705H61.3896C62.5644 18.3705 63.1517 17.7632 63.1517 16.5486V6.22473H67.4102V17.0648C67.4102 18.4818 67.0088 19.6357 66.2061 20.5264C65.4229 21.417 64.1698 21.8624 62.4469 21.8624H54.2237ZM74.5108 21.8624C72.9249 21.8624 71.711 21.4474 70.8691 20.6174C70.0272 19.7875 69.6063 18.6033 69.6063 17.0648C69.6063 15.5466 70.0272 14.3725 70.8691 13.5425C71.711 12.7126 72.9249 12.2976 74.5108 12.2976H85.7883V11.5689C85.7883 10.334 85.2009 9.71663 84.0262 9.71663H71.5739V6.22473H85.1422C86.9238 6.22473 88.1867 6.64983 88.9307 7.50003C89.6747 8.32999 90.0467 9.50408 90.0467 11.0223V21.8624H74.5108ZM75.2744 18.3705H85.7883V15.7895H75.2744C74.9024 15.7895 74.6087 15.911 74.3933 16.1539C74.1975 16.3766 74.0996 16.6802 74.0996 17.0648C74.0996 17.4494 74.1975 17.7632 74.3933 18.0061C74.6087 18.249 74.9024 18.3705 75.2744 18.3705Z" fill="white"/>
</svg>
