<svg width="350" height="110" viewBox="0 0 350 110" fill="none" xmlns="http://www.w3.org/2000/svg">
<path d="M245.187 8.4301C245.187 8.4301 238.626 11.0419 230.996 19.452C223.365 27.862 218.921 37.3191 222.21 39.8342C223.473 40.7901 226.387 40.9722 231.673 36.1925C236.551 31.9568 240.381 26.6472 242.86 20.681C246.274 12.3563 245.187 8.53252 245.187 8.44148V8.4301ZM286.947 23.5603C278.469 19.213 272.272 13.887 265.825 10.5924C259.674 7.43432 255.697 6.1142 250.723 6.77995C250.03 6.90361 249.345 7.07472 248.675 7.29206C248.675 7.29206 251.236 16.0379 241.045 30.7299C230.723 45.6268 221.357 45.5243 218.693 41.4331C215.905 37.1143 219.507 28.3116 225.522 20.4762C231.821 12.2823 242.882 5.48828 242.882 5.48828C242.882 5.48828 239.355 3.3317 230.694 8.24232C222.244 13.0107 207.7 24.391 194.203 43.584C180.706 62.777 178.031 73.3379 176.097 81.6513C174.162 89.9646 175.92 98.8697 185.139 98.8697C194.357 98.8697 205.088 84.8093 208.115 79.9215C213.743 70.8172 217.413 56.8535 209.754 58.7711C205.982 59.7156 202.926 63.8922 200.997 67.9152C199.779 70.4991 198.848 73.2086 198.22 75.9952C195.544 77.0983 193.03 78.5608 190.749 80.3425C188.211 82.2224 185.839 84.3165 183.659 86.6017C183.659 86.6017 183.693 79.9556 188.991 69.2012C194.288 58.4467 204.013 53.5361 209.521 53.0752C214.483 52.6769 220.941 56.8876 215.467 72.4218C209.993 87.956 193.844 106.842 176.882 107.075C161.228 107.291 150.986 87.313 172.774 52.4493C196.889 13.9325 225.175 2.114 234.359 0.799573C243.542 -0.514857 246.53 3.53655 246.53 3.53655C252.058 1.26847 258.029 0.28403 263.993 0.657319C275.208 1.41411 283.88 9.35191 295.329 14.9283C292.353 17.7734 289.513 20.7607 286.953 23.5603H286.947ZM337.334 10.5924C329.561 15.577 318.806 20.095 308.473 19.1276C305.856 21.8305 303.056 24.9601 300.251 28.3742C318.169 31.9191 333.868 20.8176 342.216 11.3662C345.259 7.96811 347.873 4.20912 350 0.173654C346.2 4.132 341.946 7.62899 337.328 10.5924H337.334ZM313.469 61.0756C313.605 60.8393 313.715 60.5895 313.799 60.3302C313.746 59.9198 313.554 59.5401 313.254 59.2544C312.955 58.9686 312.567 58.794 312.155 58.7597C310.448 58.68 308.12 59.0044 302.015 65.7643C296.95 71.3467 292.591 77.5309 289.035 84.1777C285.542 90.5621 284.125 95.3191 286.133 96.5481C286.786 96.8862 287.543 96.9635 288.25 96.7644C289.61 96.44 291.152 95.1654 293.497 92.4512C294.595 91.1766 295.812 89.3728 297.269 87.3756C301.309 81.8789 311.46 64.5751 313.469 61.0756ZM250.046 68.4273C251.065 65.7643 252.362 60.535 249.665 58.4809C246.769 56.3015 239.383 61.417 239.343 66.6633C239.292 72.0349 244.544 74.4646 245.801 74.806C246.518 74.9995 246.769 74.971 247.116 74.3963C248.23 72.4769 249.209 70.4825 250.046 68.4273ZM244.459 78.1973C242.628 77.3522 240.921 76.263 239.383 74.9596C237.841 73.6659 236.552 72.0974 235.582 70.3335C235.48 70.1628 235.377 70.2937 235.263 70.4473C235.149 70.6009 234.694 71.0163 230.757 76.7862C226.819 82.556 220.77 94.5111 226.244 96.5481C229.749 97.8512 235.582 91.7115 238.763 87.643C240.93 84.8033 242.894 81.8142 244.641 78.6981C244.806 78.351 244.641 78.2713 244.464 78.1973H244.459ZM306.555 92.0074C305.07 94.3859 303.375 98.9494 308.263 96.11C314.243 92.6561 322.761 79.7337 322.761 79.7337H326.625C323.109 85.1392 319.195 90.2747 314.914 95.0971C308.854 101.812 301.463 107.911 296.256 107.308C290.173 106.597 292.08 98.6137 292.08 98.6137C292.08 98.6137 283.379 107.877 277.359 107.212C269.228 106.312 271.709 96.2636 271.709 96.2636C271.709 96.2636 262.514 107.547 256.249 107.2C246.427 106.631 248.897 94.6818 251.628 86.266C253.091 81.7651 254.445 78.2315 254.445 78.2315C254.445 78.2315 253.472 78.4875 251.378 78.8005C250.285 78.9541 248.294 79.0679 248.294 79.0679C248.294 79.0679 244.203 86.2831 240.931 90.619C237.659 94.9549 223.752 109.903 215.57 106.91C208.002 104.145 210.505 92.5593 214.91 83.3526C221.339 69.9295 239.423 50.6455 249.853 53.1947C260.664 55.8179 250.098 75.5457 250.098 75.5457C250.098 75.5457 250.098 75.6197 250.211 75.6709C250.428 75.7506 250.991 75.8131 252.294 75.5571C253.644 75.2817 254.968 74.8875 256.249 74.3792C256.249 74.3792 267.117 51.6185 279.123 36.7273C291.129 21.8361 315.079 -3.80947 324.48 2.39282C326.756 3.91779 325.731 9.16982 322.636 15.5428C321.242 15.9957 319.825 16.3756 318.391 16.6809C320.462 12.9196 321.834 9.75022 322.243 7.53674C323.66 -0.156376 305.696 16.072 292.859 33.5067C285.127 44.0173 278.257 55.1361 272.318 66.7544C274.637 65.3401 276.85 63.7598 278.941 62.0259C284.667 57.2781 290.109 52.1974 295.238 46.8103C300.177 41.754 304.809 36.4071 309.11 30.7982C310.477 30.7321 311.839 30.5915 313.19 30.3771C308.501 36.7423 303.387 42.7838 297.884 48.4605C292.763 53.6385 287.22 59.2092 282.406 63.2549C278.107 66.9114 273.571 70.2816 268.83 73.3436C268.83 73.3436 257.603 95.9848 263.708 97.4358C267.299 98.3007 274.389 87.3813 274.389 87.3813C274.389 87.3813 283.641 73.2639 289.218 66.8966C296.825 58.2476 303.375 53.2402 309.918 53.1492C313.731 53.0809 315.978 57.1323 315.978 57.1323L317.771 54.3555H328.81C328.81 54.3555 308.194 89.3387 306.544 91.9733L306.555 92.0074ZM337.328 10.5924C329.555 15.577 318.801 20.095 308.467 19.1276C305.85 21.8305 303.05 24.9601 300.245 28.3742C318.163 31.9191 333.863 20.8176 342.21 11.3662C345.255 7.96843 347.871 4.20942 350 0.173654C346.2 4.132 341.946 7.62899 337.328 10.5924ZM182.299 27.7539H171.801L165.866 37.3419H176.364L182.299 27.7539ZM132.59 60.9561C137.057 54.8335 149.381 33.3758 149.381 33.3758C149.329 32.966 149.138 32.5864 148.84 32.3005C148.542 32.0146 148.154 31.8398 147.743 31.8053C146.036 31.7257 143.191 32.3004 137.54 39.3733C131.89 46.4462 127.503 52.0737 124.305 57.9289C120.8 64.319 119.269 68.8256 121.283 70.049C121.937 70.3765 122.688 70.4534 123.394 70.2652C124.703 69.9352 126.416 68.6208 128.766 65.9179C129.87 64.6547 131.122 62.9534 132.59 60.9561ZM76.257 31.9362C73.3551 29.7455 65.9749 34.8723 65.9351 40.1073C65.8895 45.4845 72.5755 47.129 73.4404 47.1688C73.6948 47.19 73.9499 47.1366 74.1744 47.0152C74.3287 46.9252 74.4518 46.7902 74.5272 46.6282C75.3133 45.0835 76.0198 43.4996 76.644 41.8826C77.6625 39.2196 78.9542 33.9904 76.257 31.9362ZM71.8813 50.4463C69.8803 49.8212 67.9679 48.9415 66.1911 47.8289C64.4694 46.7064 63.0692 45.1553 62.1283 43.3279C62.0259 43.1572 61.9121 43.2881 61.8097 43.4417C61.7073 43.5954 61.1155 44.3351 57.1665 50.1277C53.2175 55.9203 47.368 67.7672 52.8477 69.8043C56.3414 71.1301 62.2421 64.9392 65.4457 60.8878C67.843 57.704 70.0582 54.387 72.0805 50.9528C72.2113 50.6057 72.0805 50.526 71.887 50.4634L71.8813 50.4463ZM157.627 54.0141H161.473C161.473 54.0141 142.2 81.8959 131.315 80.5986C125.238 79.8873 127.042 72.3877 127.042 72.3877C127.042 72.3877 118.507 82.3796 110.666 80.3539C103.553 78.5274 108.145 66.6975 108.145 66.6975C107.337 67.0218 91.9449 84.3712 81.1278 80.2117C69.8101 75.8416 75.688 61.3146 77.8389 56.9445C79.6655 53.263 81.6855 49.6782 81.6855 49.6782C81.6855 49.6782 79.95 50.1675 78.8404 50.4179C77.7308 50.6683 76.1262 50.9869 76.1262 50.9869C76.1262 50.9869 70.7717 59.6872 67.4999 64.0288C64.228 68.3704 50.3212 83.29 42.1274 80.3198C33.9335 77.3495 35.9649 65.8838 40.5683 56.7795C48.0338 42.0135 65.7473 23.8675 76.4164 26.6216C87.1936 29.3699 78.2714 46.8502 78.2714 46.8502C78.2714 46.8502 80.4166 47.129 85.5548 43.6238C92.952 38.5766 102.716 24.9999 113.289 26.5931C118.273 27.3442 122.916 32.4369 116.566 42.1102C114.541 45.2171 111.144 47.9939 108.543 45.2455C106.921 43.5385 108.338 40.4259 110.04 38.2978C110.702 37.4303 111.567 36.7389 112.559 36.2844C113.552 35.83 114.64 35.6264 115.73 35.6917C115.73 35.6917 117.477 31.7086 113.033 31.7655C109.436 31.8338 100.332 40.2154 95.1939 48.6824C90.4825 56.4552 83.3413 69.6962 90.5109 72.5811C97.0831 75.2327 109.59 60.3871 115.383 52.6086C121.175 44.8301 134.376 27.202 145.45 26.4964C149.262 26.246 151.532 29.7227 151.532 29.7227L152.813 27.697H163.886C163.886 27.697 143.031 62.4981 141.404 65.1327C140.124 67.1925 138.422 71.8243 143.111 69.2296C147.8 66.6349 157.627 54.0141 157.627 54.0141ZM151.601 109.778C143.448 104.134 133.685 101.285 123.776 101.658C121.094 101.731 118.467 102.435 116.108 103.714C113.749 104.992 111.725 106.808 110.199 109.015C105.977 101.647 97.6293 97.1229 84.724 97.2253C63.8695 97.4643 43.1858 107.081 26.798 107.069C11.0932 107.069 -0.361155 97.1968 0.00870616 79.6654C0.697217 48.8986 26.6956 21.1932 46.0991 8.72599C57.286 1.56206 66.6406 -0.566069 72.7576 0.122443C77.2187 0.617488 82.5845 5.77279 79.1989 13.3692C74.2257 24.4707 67.3576 23.5603 67.6137 18.2513C67.7559 14.7974 70.0548 12.6238 71.7846 11.4231C72.8828 10.6663 74.8231 10.4501 75.836 10.4273C76.8204 9.59658 77.543 3.51948 69.5768 5.51673C61.6105 7.51398 51.9372 15.3664 42.7533 25.512C33.5694 35.6576 19.2699 54.8335 15.7363 74.971C14.0862 84.3086 15.1673 101.339 37.3078 101.146C56.0854 100.992 83.7624 88.6274 109.197 88.8835C119.07 88.9802 127.662 91.6432 134.359 95.7743C140.937 99.8257 148.824 105.743 151.623 109.783" fill="#E61D2B"/>
</svg>
