<svg width="250" height="58" viewBox="0 0 250 58" fill="none" xmlns="http://www.w3.org/2000/svg">
<path d="M83.4929 45.9413L83.1707 48.5739H85.9322L85.8309 49.3655H83.0695L82.7381 52.0718H86.1577L86.0518 52.8956H81.6105L82.577 45.1037H87.0092L86.9033 45.9321L83.4929 45.9413Z" fill="#ED1C24"/>
<path d="M97.1575 46.3187C97.1243 46.3589 97.0873 46.3959 97.0471 46.4292C97.0296 46.4445 97.0091 46.4561 96.9869 46.4632C96.9648 46.4704 96.9414 46.4729 96.9182 46.4706C96.8807 46.4692 96.8439 46.4604 96.8099 46.4446C96.776 46.4288 96.7455 46.4063 96.7203 46.3785C96.6359 46.3038 96.5467 46.2346 96.4534 46.1714C96.3338 46.0875 96.2038 46.0194 96.0667 45.9689C95.8836 45.8973 95.688 45.8629 95.4914 45.8677C95.2808 45.8662 95.0718 45.9037 94.8747 45.9781C94.7022 46.0448 94.5454 46.1466 94.4145 46.2773C94.2845 46.4061 94.1868 46.5638 94.1291 46.7375C94.0628 46.9092 94.03 47.092 94.0325 47.276C94.031 47.4379 94.0739 47.5971 94.1567 47.7363C94.2534 47.8618 94.37 47.9707 94.5019 48.0584C94.6546 48.1594 94.8183 48.2428 94.9898 48.307L95.5467 48.5279C95.7383 48.5986 95.9257 48.68 96.1082 48.7718C96.2869 48.8579 96.4502 48.973 96.5914 49.1124C96.7344 49.2428 96.8514 49.3989 96.9366 49.5726C97.0264 49.7915 97.0703 50.0265 97.0655 50.263C97.0669 50.6198 97.0029 50.9739 96.8768 51.3078C96.7514 51.6283 96.5636 51.9208 96.3245 52.1684C96.0793 52.4164 95.7887 52.6149 95.4684 52.7529C95.1084 52.9025 94.7214 52.9762 94.3316 52.9692C93.8997 52.9793 93.4717 52.8846 93.0844 52.6931C92.7322 52.5225 92.426 52.27 92.1915 51.9567L92.5505 51.4965C92.5751 51.4542 92.612 51.4204 92.6563 51.3998C92.6988 51.3723 92.7484 51.3579 92.799 51.3584C92.8855 51.3711 92.9641 51.4154 93.0199 51.4826C93.1028 51.5655 93.204 51.6529 93.3237 51.7542C93.4678 51.861 93.6219 51.9534 93.7839 52.0303C94.0004 52.1164 94.2323 52.1571 94.4651 52.15C94.6946 52.1523 94.9225 52.1118 95.1371 52.0303C95.329 51.9553 95.503 51.8409 95.6479 51.6944C95.7906 51.5526 95.9005 51.3814 95.9701 51.1927C96.0534 50.9818 96.094 50.7566 96.0898 50.5299C96.0934 50.3549 96.0471 50.1825 95.9563 50.0329C95.8641 49.9024 95.7487 49.7901 95.6157 49.7015C95.4625 49.6051 95.2988 49.5263 95.1279 49.4668C94.9484 49.3977 94.7643 49.3241 94.571 49.2597C94.384 49.192 94.2012 49.1137 94.0233 49.0249C93.8524 48.941 93.6968 48.829 93.563 48.6936C93.4165 48.5539 93.2991 48.3865 93.2178 48.2011C93.1234 47.9739 93.0794 47.729 93.089 47.4831C93.0885 47.1684 93.1463 46.8564 93.2593 46.5626C93.3744 46.2708 93.5465 46.0048 93.7655 45.7802C93.9916 45.5506 94.2605 45.3676 94.5572 45.2417C94.8926 45.1032 95.2528 45.0343 95.6157 45.0392C95.9866 45.0373 96.3537 45.1142 96.6927 45.2647C96.9966 45.4171 97.266 45.6301 97.4843 45.8907L97.1575 46.3187Z" fill="#ED1C24"/>
<path d="M109.046 45.9597H106.744L105.879 52.8956H104.876L105.723 45.9597H103.421L103.523 45.1129H109.147L109.046 45.9597Z" fill="#ED1C24"/>
<path d="M113.473 52.3065C113.472 52.213 113.491 52.1204 113.528 52.0349C113.563 51.955 113.611 51.8817 113.671 51.8186C113.732 51.7568 113.804 51.7069 113.883 51.6713C113.967 51.6341 114.058 51.6153 114.15 51.6161C114.243 51.6162 114.335 51.635 114.421 51.6713C114.501 51.7091 114.573 51.7587 114.638 51.8186C114.694 51.8851 114.744 51.9576 114.785 52.0349C114.815 52.1223 114.831 52.214 114.831 52.3065C114.83 52.3973 114.814 52.4874 114.785 52.5734C114.747 52.6499 114.698 52.7199 114.638 52.7805C114.577 52.8449 114.503 52.8951 114.421 52.9278C114.334 52.9606 114.243 52.9777 114.15 52.9784C114.058 52.9785 113.968 52.9613 113.883 52.9278C113.801 52.8973 113.728 52.8466 113.671 52.7805C113.608 52.7233 113.56 52.6524 113.528 52.5734C113.492 52.4893 113.473 52.3983 113.473 52.3065Z" fill="#ED1C24"/>
<path d="M133.719 52.1914L133.623 52.8956H129.761L129.853 52.1914H131.381L132.044 46.7974C132.049 46.7232 132.058 46.6495 132.072 46.5764C132.072 46.4982 132.099 46.42 132.118 46.3417L130.737 47.543C130.692 47.5736 130.642 47.5968 130.59 47.612C130.547 47.6189 130.503 47.6189 130.461 47.612C130.424 47.6034 130.39 47.5878 130.36 47.566C130.333 47.5506 130.311 47.5283 130.295 47.5015L130.06 47.1011L132.421 45.1037H133.19L132.325 52.2006L133.719 52.1914Z" fill="#ED1C24"/>
<path d="M143.84 49.7843L144.075 49.4944C144.144 49.3977 144.217 49.3103 144.287 49.2228C144.085 49.3706 143.864 49.4884 143.628 49.5726C143.391 49.6523 143.142 49.6927 142.892 49.6923C142.66 49.6945 142.43 49.6507 142.215 49.5634C142.003 49.4777 141.812 49.3474 141.654 49.1814C141.488 49.0085 141.36 48.8033 141.277 48.5785C141.181 48.3209 141.134 48.0478 141.138 47.7731C141.135 47.4054 141.206 47.0408 141.346 46.7007C141.476 46.3747 141.672 46.0787 141.921 45.8308C142.166 45.58 142.459 45.3798 142.782 45.2417C143.118 45.0938 143.482 45.02 143.849 45.0254C144.139 45.0227 144.427 45.0758 144.696 45.1819C144.934 45.2929 145.148 45.4492 145.327 45.6421C145.502 45.8432 145.638 46.076 145.727 46.3279C145.821 46.605 145.866 46.8961 145.861 47.1886C145.865 47.6762 145.762 48.1589 145.557 48.6015C145.453 48.8248 145.333 49.0402 145.198 49.2459C145.051 49.4668 144.894 49.7061 144.71 49.9316L142.634 52.6931C142.583 52.7633 142.513 52.8176 142.432 52.8496C142.335 52.8928 142.229 52.9132 142.123 52.9094H141.267L143.84 49.7843ZM142.087 47.6672C142.066 48.016 142.181 48.3592 142.409 48.6245C142.523 48.7444 142.662 48.8378 142.816 48.8982C142.971 48.9586 143.136 48.9846 143.302 48.9743C143.532 48.978 143.759 48.9313 143.969 48.8375C144.179 48.7437 144.366 48.605 144.517 48.4312C144.664 48.266 144.778 48.0738 144.853 47.8651C144.931 47.6449 144.971 47.4131 144.972 47.1794C144.972 46.9888 144.943 46.7994 144.885 46.6179C144.833 46.458 144.748 46.3106 144.636 46.1852C144.528 46.0621 144.392 45.966 144.241 45.9045C144.082 45.836 143.911 45.8015 143.739 45.8032C143.512 45.8036 143.288 45.8507 143.081 45.9413C142.877 46.0284 142.696 46.1606 142.551 46.3279C142.401 46.4983 142.287 46.697 142.215 46.9124C142.131 47.1551 142.087 47.4102 142.087 47.6672Z" fill="#ED1C24"/>
<path d="M155.332 49.7843C155.415 49.6831 155.489 49.5864 155.567 49.4944C155.645 49.4023 155.705 49.3103 155.774 49.2228C155.573 49.3706 155.351 49.4884 155.116 49.5726C154.88 49.6518 154.633 49.6922 154.384 49.6923C154.151 49.695 153.919 49.6512 153.703 49.5634C153.492 49.4787 153.301 49.3482 153.146 49.1814C152.982 49.0082 152.855 48.803 152.773 48.5785C152.671 48.3227 152.62 48.0487 152.626 47.7731C152.623 47.4049 152.695 47.0399 152.838 46.7007C152.97 46.3756 153.166 46.0799 153.413 45.8308C153.658 45.581 153.949 45.381 154.269 45.2417C154.606 45.0952 154.97 45.0215 155.337 45.0254C155.627 45.0219 155.914 45.075 156.184 45.1819C156.425 45.2904 156.641 45.447 156.819 45.6421C156.993 45.8435 157.128 46.0762 157.215 46.3279C157.31 46.6047 157.357 46.8959 157.353 47.1886C157.354 47.4392 157.328 47.6893 157.275 47.9342C157.223 48.1645 157.146 48.3883 157.044 48.6015C156.943 48.8257 156.823 49.0412 156.686 49.2459C156.543 49.4668 156.382 49.7061 156.198 49.9316L154.131 52.6931C154.074 52.7633 153.999 52.8173 153.915 52.8496C153.821 52.8935 153.719 52.9141 153.616 52.9094H152.76L155.332 49.7843ZM153.579 47.6672C153.56 48.0149 153.674 48.3569 153.896 48.6245C154.011 48.7439 154.15 48.8369 154.305 48.8973C154.459 48.9577 154.624 48.984 154.789 48.9743C155.028 48.9799 155.264 48.9295 155.48 48.827C155.684 48.7347 155.866 48.5998 156.014 48.4312C156.158 48.2647 156.27 48.0727 156.345 47.8651C156.426 47.6455 156.466 47.4133 156.465 47.1794C156.467 46.9886 156.438 46.7987 156.377 46.6179C156.324 46.4566 156.236 46.3089 156.119 46.1852C156.015 46.0636 155.885 45.9676 155.737 45.9045C155.579 45.8374 155.408 45.803 155.236 45.8032C155.006 45.8032 154.779 45.8502 154.568 45.9413C154.366 46.0284 154.187 46.1607 154.044 46.3279C153.892 46.498 153.776 46.6968 153.703 46.9124C153.615 47.1542 153.573 47.4101 153.579 47.6672Z" fill="#ED1C24"/>
<path d="M165.969 48.04L165.771 48.2747C165.715 48.3576 165.646 48.4312 165.587 48.5049C165.764 48.3842 165.96 48.2925 166.167 48.2333C166.377 48.1703 166.596 48.1377 166.815 48.1367C167.066 48.1356 167.314 48.1808 167.547 48.2701C167.767 48.3632 167.967 48.4976 168.136 48.6659C168.311 48.8432 168.445 49.0569 168.528 49.2919C168.634 49.5597 168.685 49.8461 168.679 50.1341C168.682 50.5191 168.609 50.9007 168.463 51.2571C168.327 51.5996 168.125 51.9123 167.869 52.1776C167.617 52.4334 167.317 52.6367 166.986 52.7759C166.633 52.923 166.254 52.9966 165.872 52.9922C165.571 52.9965 165.273 52.9418 164.993 52.8312C164.74 52.7319 164.515 52.5742 164.335 52.3709C164.151 52.1627 164.01 51.9203 163.921 51.6575C163.822 51.3608 163.774 51.0497 163.778 50.737C163.779 50.5129 163.803 50.2894 163.847 50.0697C163.899 49.8422 163.973 49.6202 164.068 49.4069C164.169 49.1713 164.291 48.945 164.431 48.7304C164.594 48.4818 164.773 48.2435 164.965 48.017L167.101 45.3476C167.161 45.2782 167.234 45.2218 167.317 45.1819C167.415 45.142 167.52 45.1202 167.626 45.1175H168.449L165.969 48.04ZM165.969 52.2098C166.213 52.2147 166.456 52.1627 166.677 52.0579C166.891 51.9661 167.082 51.8295 167.239 51.6575C167.4 51.4783 167.526 51.2707 167.612 51.0454C167.7 50.799 167.744 50.5387 167.741 50.2768C167.744 50.0754 167.715 49.8749 167.653 49.6831C167.601 49.512 167.512 49.3547 167.391 49.2228C167.276 49.1008 167.136 49.005 166.981 48.9421C166.809 48.8721 166.624 48.8377 166.438 48.8408C166.194 48.8375 165.953 48.891 165.734 48.9973C165.522 49.0936 165.333 49.235 165.182 49.4115C165.022 49.5886 164.899 49.7949 164.818 50.0191C164.731 50.2562 164.687 50.5073 164.689 50.7601C164.688 50.9549 164.716 51.1489 164.772 51.3354C164.823 51.5031 164.906 51.6594 165.016 51.7956C165.125 51.9239 165.262 52.0261 165.416 52.0948C165.585 52.1683 165.766 52.2074 165.95 52.2098H165.969Z" fill="#ED1C24"/>
<path d="M9.54546 16.0484C9.41943 16.2257 9.336 16.4296 9.30167 16.6443C9.26734 16.8591 9.28305 17.0788 9.34756 17.2865L15.1098 35.259C15.199 35.5391 15.3751 35.7834 15.6127 35.9564C15.8503 36.1294 16.1368 36.2221 16.4307 36.2209H36.7091C36.8931 36.2201 37.0749 36.1809 37.243 36.1059L38.5224 39.6774H16.4307C16.271 39.6631 16.11 39.6822 15.958 39.7335C15.8061 39.7848 15.6665 39.8673 15.5481 39.9755C15.4298 40.0837 15.3352 40.2154 15.2706 40.3622C15.2059 40.509 15.1725 40.6676 15.1725 40.828C15.1725 40.9884 15.2059 41.147 15.2706 41.2938C15.3352 41.4406 15.4298 41.5723 15.5481 41.6805C15.6665 41.7887 15.8061 41.8711 15.958 41.9225C16.11 41.9738 16.271 41.9929 16.4307 41.9786H17.7194C17.1852 42.5742 16.8349 43.3118 16.7109 44.1023C16.5869 44.8927 16.6944 45.7021 17.0206 46.4327C17.3467 47.1634 17.8775 47.7839 18.5487 48.2193C19.22 48.6548 20.0029 48.8865 20.803 48.8865C21.6031 48.8865 22.3861 48.6548 23.0573 48.2193C23.7286 47.7839 24.2593 47.1634 24.5855 46.4327C24.9116 45.7021 25.0192 44.8927 24.8952 44.1023C24.7712 43.3118 24.4209 42.5742 23.8867 41.9786H32.9305C32.3956 42.574 32.0446 43.3116 31.9201 44.1023C31.7955 44.8929 31.9027 45.7027 32.2287 46.4337C32.5546 47.1647 33.0854 47.7857 33.7568 48.2214C34.4282 48.6572 35.2114 48.889 36.0118 48.889C36.8122 48.889 37.5954 48.6572 38.2668 48.2214C38.9382 47.7857 39.469 47.1647 39.7949 46.4337C40.1209 45.7027 40.2281 44.8929 40.1035 44.1023C39.979 43.3116 39.628 42.574 39.0931 41.9786H40.1655C40.3463 41.9743 40.5236 41.928 40.6833 41.8434C40.8431 41.7587 40.981 41.638 41.086 41.4907C41.1924 41.3393 41.2606 41.1643 41.2846 40.9807C41.3087 40.7972 41.2879 40.6106 41.2241 40.4368L39.1714 34.6745C39.1123 34.5138 39.018 34.3684 38.8953 34.2489C38.7727 34.1294 38.6248 34.039 38.4626 33.9842L45.6424 13.31L51.4967 11.0088C51.6656 10.9426 51.8199 10.8438 51.9506 10.718C52.0814 10.5922 52.1861 10.4419 52.2587 10.2756C52.3314 10.1094 52.3706 9.93046 52.3741 9.74907C52.3776 9.56767 52.3453 9.38736 52.2791 9.21843C52.1455 8.87726 51.8818 8.60316 51.546 8.45643C51.3797 8.38377 51.2008 8.34457 51.0194 8.34107C50.838 8.33757 50.6577 8.36983 50.4888 8.43601L44.0454 10.972C43.8635 11.0464 43.6996 11.1588 43.5647 11.3017C43.4298 11.4446 43.3269 11.6146 43.2629 11.8004L35.7242 33.4595H17.434L16.4767 30.4587H32.751C33.1172 30.4587 33.4684 30.3132 33.7273 30.0543C33.9862 29.7953 34.1317 29.4442 34.1317 29.078C34.1317 28.7118 33.9862 28.3606 33.7273 28.1016C33.4684 27.8427 33.1172 27.6972 32.751 27.6972H15.5931L14.4471 24.1257H34.3664C34.7326 24.1257 35.0838 23.9803 35.3428 23.7213C35.6017 23.4624 35.7472 23.1112 35.7472 22.745C35.7472 22.3788 35.6017 22.0276 35.3428 21.7687C35.0838 21.5097 34.7326 21.3643 34.3664 21.3643H13.5588L12.5647 18.2484H37.4178C37.784 18.2484 38.1352 18.1029 38.3942 17.844C38.6531 17.5851 38.7986 17.2339 38.7986 16.8677C38.7986 16.5015 38.6531 16.1503 38.3942 15.8914C38.1352 15.6324 37.784 15.487 37.4178 15.487H10.6685C10.4498 15.4857 10.234 15.5363 10.0388 15.6347C9.84353 15.7331 9.67446 15.8765 9.54546 16.0531V16.0484ZM36.0141 46.5948C35.65 46.5948 35.2941 46.4869 34.9913 46.2846C34.6886 46.0823 34.4526 45.7948 34.3133 45.4584C34.1739 45.122 34.1375 44.7518 34.2085 44.3947C34.2795 44.0376 34.4549 43.7096 34.7123 43.4521C34.9698 43.1946 35.2978 43.0193 35.6549 42.9483C36.0121 42.8772 36.3822 42.9137 36.7186 43.053C37.055 43.1924 37.3425 43.4283 37.5448 43.7311C37.7471 44.0338 37.8551 44.3898 37.8551 44.7539C37.8551 45.2421 37.6611 45.7104 37.3159 46.0556C36.9706 46.4009 36.5024 46.5948 36.0141 46.5948ZM20.826 46.5948C20.4619 46.5948 20.106 46.4869 19.8033 46.2846C19.5005 46.0823 19.2645 45.7948 19.1252 45.4584C18.9859 45.122 18.9494 44.7518 19.0204 44.3947C19.0915 44.0376 19.2668 43.7096 19.5243 43.4521C19.7817 43.1946 20.1098 43.0193 20.4669 42.9483C20.824 42.8772 21.1942 42.9137 21.5306 43.053C21.867 43.1924 22.1545 43.4283 22.3568 43.7311C22.5591 44.0338 22.667 44.3898 22.667 44.7539C22.667 45.2421 22.4731 45.7104 22.1278 46.0556C21.7826 46.4009 21.3143 46.5948 20.826 46.5948Z" fill="#ED1C24"/>
<path d="M52.0536 39.8247C49.7271 44.7015 45.9389 48.7323 41.2156 51.3567C36.4924 53.9811 31.0689 55.0687 25.699 54.4683C20.3291 53.8679 15.2797 51.6093 11.2527 48.0066C7.22572 44.4038 4.42128 39.6359 3.22926 34.3657C2.03724 29.0955 2.51686 23.5848 4.60145 18.5997C6.68604 13.6147 10.272 9.40296 14.8608 6.5501C19.4497 3.69724 24.8134 2.34498 30.2063 2.68132C35.5991 3.01766 40.7532 5.02588 44.952 8.42681L47.7457 7.33143C43.6324 3.63523 38.5362 1.20997 33.0735 0.34899C27.6109 -0.511993 22.0158 0.228176 16.965 2.47998C11.9141 4.73178 7.62387 8.39875 4.61311 13.0374C1.60236 17.676 5.41305e-05 23.0876 0 28.6177C0.00389051 35.2143 2.28583 41.6071 6.45993 46.7152C10.634 51.8232 16.4441 55.3329 22.9077 56.6508C29.3713 57.9688 36.0917 57.0141 41.9325 53.9481C47.7733 50.8821 52.376 45.8931 54.9624 39.8247H52.0536Z" fill="#ED1C24"/>
<path fill-rule="evenodd" clip-rule="evenodd" d="M52.3159 14.8196H60.2137V35.6825H52.3159V14.8196ZM72.6541 19.9467L68.4107 27.0299L73.5102 35.6825H65.1107L60.7062 27.0299L64.2731 19.9467H72.6541ZM80.3908 19.6798C81.6011 19.4189 82.8348 19.2816 84.0728 19.2702C86.6348 19.2702 88.7596 19.8838 90.4472 21.1111C92.022 22.1873 93.142 23.809 93.5906 25.6629C93.7319 26.3068 93.8013 26.9644 93.7978 27.6236C93.7993 28.8699 93.5093 30.0993 92.9509 31.2135C92.3533 32.3811 91.4718 33.3798 90.3873 34.1176C89.1454 34.9477 87.7272 35.4772 86.2451 35.6641C85.249 35.8099 84.2458 35.9021 83.2398 35.9402C81.4451 35.9871 79.6666 35.5903 78.062 34.785C76.6918 34.1 75.5383 33.0485 74.7298 31.7474C73.9904 30.5477 73.5984 29.1663 73.5976 27.7571C73.6113 25.9845 74.2299 24.2698 75.3512 22.8969C76.6457 21.3165 78.4088 20.1883 80.3862 19.6752L80.3908 19.6798ZM81.4632 27.7755C81.4512 28.5006 81.6722 29.2104 82.0937 29.8005C82.2534 30.1074 82.4928 30.3655 82.7868 30.5478C83.0809 30.73 83.4186 30.8296 83.7644 30.8361C84.0473 30.825 84.3245 30.7531 84.577 30.6252C84.8296 30.4973 85.0516 30.3165 85.228 30.0951C85.7202 29.4871 85.968 28.7175 85.923 27.9366C85.9304 27.173 85.7214 26.423 85.3201 25.7734C85.1737 25.4992 84.9583 25.2679 84.6952 25.1024C84.432 24.9369 84.1302 24.843 83.8197 24.8299C82.8439 24.7793 81.5368 25.3454 81.4632 27.7755ZM129.329 14.2075H136.941V18.658H129.329V14.2075ZM136.941 19.9467V35.6825H129.329V19.9467H136.941ZM139.436 19.9467H147.057V21.3597C147.764 20.6903 148.614 20.1899 149.543 19.8961C150.613 19.5187 151.74 19.3273 152.875 19.33C153.702 19.3283 154.525 19.4367 155.323 19.6522C156.08 19.8512 156.797 20.1814 157.44 20.6279C158.065 21.0748 158.573 21.6651 158.922 22.3492C159.316 23.1308 159.515 23.9962 159.502 24.8713V35.6825H151.604V27.5131C151.616 27.2613 151.577 27.0098 151.491 26.7729C151.405 26.536 151.273 26.3183 151.103 26.1324C150.943 25.9661 150.75 25.8344 150.537 25.7458C150.324 25.6571 150.095 25.6132 149.865 25.6169C149.537 25.6268 149.216 25.7076 148.923 25.8539C148.629 26.0001 148.371 26.2082 148.166 26.4638C147.627 27.1496 147.338 27.9987 147.347 28.8708V35.6825H139.454V19.9467H139.436ZM161.895 14.8196H169.798V35.6825H161.895V14.8196ZM182.234 19.9467L177.99 27.0299L183.09 35.6825H174.69L170.29 27.0299L173.853 19.9467H182.234ZM185.971 20.6187C188.601 20.1388 191.265 19.8694 193.938 19.8132C198.899 19.8132 201.507 21.0989 201.762 23.6701V35.6825H194.136V29.5382C193.865 29.7216 193.564 29.8557 193.247 29.934C192.787 30.0859 192.4 30.2056 192.101 30.2792C191.452 30.4909 191.13 30.8039 191.13 31.1997C191.146 31.319 191.188 31.4334 191.252 31.5351C191.316 31.6368 191.402 31.7234 191.503 31.7888C191.733 31.9814 192.022 32.0887 192.322 32.0926C192.694 32.0699 193.054 31.9509 193.367 31.7474L192.322 35.9402C191.512 36.0816 190.691 36.1509 189.869 36.1473C187.908 36.1473 186.365 35.6978 185.239 34.7988C184.715 34.4118 184.282 33.9136 183.973 33.34C183.663 32.7663 183.484 32.1313 183.449 31.4804C183.436 30.4838 183.718 29.5055 184.259 28.6683C184.76 27.9907 185.441 27.4663 186.224 27.1541C187.211 26.768 188.24 26.4978 189.289 26.3487C190.516 26.1462 191.62 25.9759 192.598 25.8378C192.951 25.8143 193.292 25.7001 193.588 25.5065C193.859 25.3178 193.993 25.1337 193.993 24.9496C193.993 24.7655 193.841 24.5354 193.533 24.3743C193.078 24.1927 192.59 24.1126 192.101 24.1395C190.389 24.1395 188.185 24.6366 185.465 25.6215L185.962 20.6279L185.971 20.6187ZM211.022 29.2713V35.6825H204.173V29.2713H211.022ZM221.313 19.9467V28.0746C221.283 28.7831 221.483 29.4822 221.884 30.0675C222.016 30.2853 222.198 30.4686 222.415 30.6023C222.631 30.7359 222.877 30.8161 223.131 30.8361C223.385 30.8249 223.632 30.7524 223.851 30.625C224.071 30.4976 224.256 30.3189 224.392 30.1043C224.793 29.5045 224.987 28.7902 224.944 28.07V19.9467H232.483V35.6825H225.082V34.2051C224.719 34.7482 223.959 35.236 222.781 35.6595C221.614 36.082 220.382 36.2969 219.141 36.2946C217.684 36.3417 216.251 35.9189 215.054 35.0887C213.955 34.2787 213.404 33.01 213.401 31.2825V19.9467H221.313ZM235.263 19.9467H249.991V25.8286L243.63 30.8361H250V35.6825H234.959V30.0813L241.039 25.0876H235.235L235.263 19.9467Z" fill="#ED1C24"/>
<path fill-rule="evenodd" clip-rule="evenodd" d="M96.5362 19.9329H103.96V21.171L104.692 20.6693C105.152 20.3655 105.488 20.14 105.732 20.0019C106.002 19.8508 106.287 19.7289 106.583 19.6384C106.909 19.5402 107.247 19.4906 107.587 19.4911C108.054 19.49 108.519 19.555 108.967 19.6844L109.538 26.0818C108.901 25.9468 108.252 25.8804 107.6 25.8839C105.624 25.8839 104.577 26.8734 104.457 28.8524V35.6733H96.5362V19.9329Z" fill="#ED1C24"/>
<path fill-rule="evenodd" clip-rule="evenodd" d="M126.903 19.9467H111.738L112.166 25.0738H117.938L111.862 30.0721V35.6733H126.903V30.8131H120.529L126.903 25.8148V19.9467Z" fill="#ED1C24"/>
</svg>
