<svg width="467" height="110" viewBox="0 0 467 110" fill="none" xmlns="http://www.w3.org/2000/svg">
<path fill-rule="evenodd" clip-rule="evenodd" d="M180.328 26.4275C180.102 26.0878 179.857 25.7611 179.594 25.4487C179.419 25.2448 179.338 25.1982 179.163 24.9709C176.565 21.6267 170.837 19.3312 166.753 18.5155C161.328 17.4014 155.707 17.7166 150.44 19.4303C146.187 20.846 143 23.0075 140.431 26.5673C137.71 30.3368 136.451 34.7239 136.451 39.8393V64.047H149.852V38.7323C149.852 35.19 151.652 31.7409 154.728 30.1912C158.224 28.4433 163.374 28.3268 167.016 29.6086C168.124 29.9524 169.144 30.5355 170.003 31.3167C170.862 32.098 171.538 33.0582 171.985 34.1297C173.15 36.5592 173.261 39.5596 173.261 42.4319V64.2218H178.289C178.982 64.2218 179.215 64.1169 179.903 64.1169H185.053C185.741 64.1169 185.974 64.012 186.667 64.012V40.9521C186.667 37.8409 187.739 34.1238 189.621 31.9041C193.181 27.6917 203.359 27.5927 207.175 31.4438C207.66 31.9071 208.085 32.4298 208.44 32.9994C209.663 35.0296 210.27 37.3714 210.187 39.7402V64.047H223.506V38.7323C223.601 33.7532 221.978 28.8933 218.909 24.9709L217.627 23.526C213.939 19.8323 207.723 17.7523 202.217 17.7523C198.949 17.7523 197.154 17.8048 194.026 18.5388L189.895 19.7565C187.812 20.5346 185.841 21.5847 184.034 22.8793C183.334 23.3795 182.674 23.9326 182.059 24.534L180.311 26.4275H180.328ZM270.139 53.257H248.139C246.245 53.257 244.643 51.3751 244.521 49.1786C244.416 47.1919 246.059 45.1586 248.139 45.1586L275.283 45.2576C275.283 47.4017 275.545 48.8932 274.747 50.5012C274.299 51.3332 273.634 52.0286 272.822 52.5137C272.011 52.9988 271.084 53.2556 270.139 53.257ZM238.677 18.4573V28.7463C238.677 29.2415 240.029 29.0492 241.008 29.0492C245.197 29.0492 268.74 28.9036 270.477 29.1425C273.972 29.6202 275.213 31.6419 275.213 35.2017V35.6037C272.883 35.6037 270.75 35.7027 268.35 35.7027H247.131C244.573 35.7027 242.866 35.9008 241.002 36.6407C239.605 37.2067 238.309 37.9936 237.162 38.9712C236.338 39.6227 235.6 40.3764 234.966 41.2143C233.266 43.5095 232.333 46.2819 232.298 49.1378C232.298 52.82 232.688 54.999 234.599 58.0344C236.51 61.0698 240.629 64.047 244.707 64.047H272.673C275.983 64.0217 279.207 62.9871 281.913 61.0815C283.08 60.208 284.128 59.1856 285.03 58.0402C287.361 54.9058 288.718 51.7363 288.718 47.4075V34.0073C288.718 29.0434 286.615 24.3941 282.968 21.5976C278.889 18.4922 273.524 18.1718 268.233 18.1718H238.957C238.724 18.1718 238.654 18.2417 238.654 18.4748L238.677 18.4573ZM300.435 64.047H313.835V42.362H323.122C326.105 42.362 328.225 42.9796 329.88 45.2751C330.224 45.747 330.521 46.2015 330.847 46.7316C331.028 47.023 331.15 47.221 331.296 47.4949L333.009 50.6177C333.16 50.909 333.259 51.1187 333.434 51.4101L340.256 64.047H355.404C355.253 63.7557 355.142 63.4644 354.967 63.1731C354.793 62.8818 354.653 62.6545 354.461 62.2642L347.248 48.8873C347.056 48.497 346.933 48.3047 346.741 47.9784L345.803 46.1956C344.638 43.8652 343.245 41.29 341.334 39.6703C340.594 39.0469 338.718 38.0274 337.425 38.0274V37.8234C338.235 37.8234 339.959 36.8621 340.536 36.4951C341.437 35.9003 342.255 35.187 342.966 34.3744C343.787 33.3956 344.958 31.5661 345.739 30.3893L351.186 22.32C351.518 21.8248 351.769 21.4578 352.136 20.9509C352.503 20.444 353.791 18.6204 353.884 18.166H338.858C337.938 19.5351 333.16 26.9052 332.123 28.0704C331.826 28.4025 331.657 28.5424 331.348 28.9152L330.457 29.7134C329.082 30.8815 327.343 31.5327 325.54 31.5545H313.829V0H300.429V64.047H300.435ZM443.38 53.257H432.496C429.974 53.257 427.02 51.6256 425.581 49.7613C423.169 46.6792 423.116 44.7857 423.116 40.3229C423.063 38.7527 423.235 37.183 423.629 35.6619C424.412 33.232 426.126 31.2108 428.395 30.0397C429.646 29.3411 431.042 28.9422 432.473 28.8745H443.677C447.673 28.8745 451.478 32.0847 452.497 36.0931C452.999 38.0623 452.865 44.0458 452.334 45.9975C451.959 47.2725 451.336 48.4606 450.499 49.4932C449.206 51.2702 446.351 53.257 443.38 53.257ZM466.102 37.4098V44.8614C466.011 49.8122 464.014 54.5371 460.526 58.0519C457.199 61.3495 452.515 64.0237 447.737 64.0237H428.057C424.264 64.0237 419.766 62.0195 416.987 59.6541C415.91 58.7541 414.912 57.7639 414.004 56.6944C412.88 55.3933 411.966 53.9249 411.295 52.3422C409.221 47.1511 409.693 43.335 409.693 37.7011C409.674 34.7803 410.355 31.8975 411.679 29.2939C412.56 27.6246 413.666 26.0838 414.965 24.7146C418.275 21.4345 422.079 19.1797 426.816 18.4048C429.595 17.9504 441.422 18.131 444.708 18.131C449.561 18.131 453.214 18.8476 456.82 21.2597L459.04 22.8735C461.152 24.5802 462.881 26.7122 464.115 29.1308C464.726 30.2867 465.197 31.511 465.519 32.778C465.863 34.2993 466.058 35.8506 466.102 37.4098ZM361.965 39.5363V64.047H375.365V38.9362C375.365 35.1551 376.996 31.2748 380.608 29.6552C381.955 29.1159 383.402 28.8754 384.85 28.9502C390.775 28.9502 397.201 28.8686 403.115 28.9502C403.581 28.9502 404.123 29.0842 404.123 28.6472V18.4573C404.123 18.2242 404.047 18.1543 403.82 18.1543H384.063C380.154 18.1543 377.486 18.399 374.538 19.4303C373.884 19.6588 373.245 19.9293 372.627 20.2401C372.024 20.529 371.44 20.8559 370.879 21.2189C364.668 25.3904 361.959 31.84 361.959 39.5363H361.965ZM57.7283 47.693L57.6293 47.6347L57.4836 47.5939L57.4254 47.5531C56.4524 49.9885 55.5202 51.4683 54.5123 53.5424L52.1818 57.5916C51.8497 58.1742 51.5468 58.6054 51.2205 59.1589C48.7234 63.1391 45.945 66.9357 42.9066 70.5199L35.152 78.7988C34.6859 79.2649 34.2839 79.5562 33.8352 80.0107L30.4561 82.9879C27.4119 85.5313 24.2278 87.9024 20.9186 90.09C20.6273 90.288 20.4001 90.4046 20.1088 90.5968C19.8616 90.8026 19.5821 90.966 19.2815 91.0804C19.4492 91.3114 19.6587 91.509 19.8991 91.663C21.5423 92.9398 23.2538 94.1263 25.0261 95.217C28.2335 97.1646 31.6398 98.7642 35.1869 99.9886C37.769 100.902 40.4235 101.596 43.1222 102.063C47.8588 103.007 52.3391 102.942 57.1049 102.645C62.2611 102.36 68.4776 100.484 73.0395 98.602C74.7873 97.8912 75.6671 97.3552 77.1935 96.5978C79.5958 95.3034 81.8943 93.8249 84.0684 92.1757C84.8316 91.5931 84.9132 91.7679 84.8608 90.4279L84.3714 85.9825C84.1552 84.5802 83.8595 83.1914 83.4858 81.8226C81.1903 73.934 78.0791 68.6322 73.156 62.1885L69.7011 58.1801C69.4881 57.9843 69.2932 57.7698 69.1185 57.5392C68.3145 56.5313 65.2441 53.758 64.0322 52.6335C63.7759 52.3947 63.5953 52.284 63.3215 52.0509C63.0476 51.8179 62.9136 51.713 62.6631 51.5033C62.4126 51.2935 62.2494 51.1537 62.0047 50.9207C60.7463 49.8603 58.509 48.3513 57.6992 47.6638L57.7283 47.693Z" fill="#E31E25"/>
<path fill-rule="evenodd" clip-rule="evenodd" d="M57.5477 47.3027L57.4836 47.6115L57.6293 47.6522C57.7575 47.594 57.7283 47.5707 57.7283 47.7105C60.9852 47.7105 67.8775 49.0971 70.9362 49.7322C78.1549 51.2295 86.9465 54.5446 93.4485 57.7956C96.1461 59.1414 98.2493 60.3241 100.859 61.8739C101.681 62.3691 102.421 62.8993 103.236 63.3304C103.236 62.8061 104.676 57.6732 104.745 52.0277C104.745 51.4451 104.856 51.2004 104.856 50.5245C104.856 49.8487 104.78 49.5224 104.751 49.0097C104.725 47.0116 104.573 45.0171 104.297 43.0379C103.045 33.9865 99.4053 25.4318 93.7515 18.2534C93.2796 17.6708 92.7902 17.1173 92.295 16.5056L89.9645 13.9654L89.1605 13.1614L83.9169 8.69851C83.3343 8.24407 82.6993 7.85372 82.0875 7.39928C81.4758 6.94484 80.8349 6.54283 80.1416 6.11752C77.4353 4.39731 74.5738 2.93438 71.5946 1.7479C70.7906 1.42164 67.5163 0.198143 66.7065 0.180664C66.7065 1.39251 66.8113 2.2606 66.8113 3.5074L66.7123 10.4988C66.654 12.4855 66.019 18.3525 65.7277 20.1061C65.3781 22.2269 65.0518 24.0504 64.6498 26.0896L61.626 37.1593C61.0434 38.9479 60.4026 40.6026 59.7151 42.3096C59.3655 43.1894 58.0488 46.4753 57.5477 47.2794V47.3027Z" fill="#FECC00"/>
<path fill-rule="evenodd" clip-rule="evenodd" d="M252.177 85.0267C252.186 84.4291 252.015 83.8426 251.686 83.3437C251.357 82.8448 250.885 82.4568 250.332 82.2303C249.779 82.0038 249.17 81.9493 248.586 82.074C248.001 82.1987 247.468 82.4968 247.056 82.9293C246.487 83.5576 246.188 84.3839 246.222 85.2306V100.058C246.222 103.816 251.658 104.224 252.153 100.437C252.474 97.9957 251.815 91.651 252.34 89.7284C252.922 87.6251 254.175 87.2464 256.01 87.2464C259.739 87.2464 259.04 92.3269 259.04 94.9137C259.04 96.6615 258.958 98.5609 259.04 100.262C259.062 100.827 259.247 101.375 259.571 101.838C259.896 102.302 260.347 102.662 260.87 102.877C261.394 103.092 261.968 103.152 262.524 103.05C263.081 102.948 263.596 102.688 264.01 102.301C264.275 102.075 264.492 101.799 264.649 101.487C264.807 101.176 264.9 100.837 264.924 100.489C265.507 96.8421 263.946 90.1479 266.026 88.0738C267.191 86.9085 270.919 86.4599 271.677 89.7459C272.05 91.3539 271.799 98.0015 271.852 100.262C271.877 100.98 272.154 101.667 272.632 102.202C274.293 104.002 277.707 102.884 277.707 100.454V88.7613C277.731 87.1398 277.225 85.5548 276.268 84.246C274.299 81.5951 270.081 81.3329 267.482 82.4981C265.058 83.5876 264.93 84.4208 263.986 85.0558C263.229 83.9255 263.048 83.541 261.749 82.7545C261.26 82.4606 260.73 82.2426 260.176 82.1078C259.246 81.847 258.273 81.7775 257.316 81.9037C256.358 82.0299 255.437 82.3491 254.606 82.8419C253.441 83.5002 252.427 84.881 252.183 85.0558L252.177 85.0267ZM186.487 92.6007C186.487 89.5886 188.438 86.8503 191.433 86.8503C194.346 86.8503 196.479 89.3672 196.479 92.2977V92.7988C196.479 95.7119 194.509 98.2462 191.328 98.2462C188.351 98.2462 186.487 95.3856 186.487 92.6007ZM186.586 85.0267C186.639 84.2541 186.383 83.492 185.875 82.9079C185.366 82.3239 184.646 81.9659 183.874 81.9126C183.101 81.8593 182.339 82.1151 181.755 82.6237C181.171 83.1323 180.813 83.8521 180.76 84.6247V106.618C180.814 107.296 181.108 107.931 181.588 108.412C182.069 108.892 182.704 109.186 183.381 109.24C184.314 109.24 185.222 109.112 185.863 108.296C186.388 107.696 186.657 106.914 186.615 106.117C186.615 104.166 186.615 102.214 186.615 100.291C186.979 100.704 187.368 101.093 187.78 101.456C192.575 105.191 198.739 102.831 200.912 98.7589C201.744 97.2836 202.238 95.6418 202.357 93.9524C202.398 92.5716 202.555 93.5096 202.357 91.82C202.328 91.552 202.357 91.2956 202.357 91.0334C202.187 89.3697 201.66 87.7622 200.813 86.3201C200.261 85.3617 199.524 84.5222 198.646 83.8498C198.344 83.6066 198.025 83.3865 197.69 83.1914C196.576 82.5101 195.325 82.0837 194.027 81.9427C192.728 81.8017 191.415 81.9496 190.181 82.3758C187.937 83.2322 187.075 84.7703 186.621 85.0733L186.586 85.0267ZM321.613 77.3594V100.46C321.677 101.134 321.974 101.764 322.453 102.242C322.931 102.72 323.561 103.017 324.235 103.082C325.295 103.082 326.245 102.896 326.903 101.917C327.684 100.751 327.486 99.3532 327.486 97.5296C327.486 96.3644 327.829 96.6499 328.878 95.5895C329.169 95.3068 329.481 95.0458 329.81 94.8088C330.126 95.1388 330.406 95.5022 330.643 95.8925L334.768 101.555C335.782 102.901 336.079 103.082 337.781 103.082C339.004 103.082 340.204 101.992 340.204 100.256C340.204 99.126 338.025 96.5508 337.291 95.5953C336.708 94.8379 336.225 94.1388 335.66 93.3931L334.028 91.1849C334.181 90.9627 334.38 90.776 334.611 90.6373C335.537 89.9265 337.326 88.2136 338.188 87.5552C342.22 84.4674 338.497 80.424 335.572 82.6263C334.355 83.541 332.193 85.819 330.999 86.926C330.754 87.1532 330.638 87.1882 330.416 87.4271C330.195 87.6659 330.073 87.7766 329.834 88.0097L327.503 90.2003V80.8901C327.503 79.6316 327.701 77.3944 327.328 76.4214C326.163 73.4326 321.648 74.2483 321.648 77.3594H321.613ZM352.591 86.6405C354.193 86.6405 354.921 86.6405 356.15 88.0271C356.879 88.8428 357.053 89.6643 357.316 90.8761H348.541C348.757 90.4275 348.844 89.1283 349.829 88.0271C350.162 87.6135 350.58 87.2758 351.054 87.0367C351.528 86.7975 352.048 86.6625 352.579 86.6405H352.591ZM342.803 92.187C342.705 93.9667 343.039 95.7435 343.776 97.3665C344.286 98.5275 345.027 99.5723 345.955 100.437C348.745 103.251 353.529 104.043 357.246 102.796C358.9 102.243 361.907 100.81 361.505 98.7182C361.138 96.8072 359.302 96.2013 357.758 97.25C356.913 97.8945 355.923 98.3243 354.875 98.5026C354.252 98.6026 353.619 98.6163 352.993 98.5434C350.546 98.3977 349.147 96.7256 348.658 94.6107H357.153C358.941 94.6107 361.4 95.0826 362.443 93.5445C364.266 90.8528 361.528 83.1623 355.189 82.0437C353.017 81.5922 350.757 81.8474 348.74 82.772C347.885 83.1504 347.098 83.666 346.409 84.2984C346.077 84.6072 346.019 84.5489 345.727 84.9276C345.529 85.1898 345.384 85.2947 345.145 85.5743C344.906 85.854 344.778 86.0637 344.597 86.3376C343.462 88.0733 342.833 90.0906 342.779 92.1637L342.803 92.187ZM215.256 86.6405C216.794 86.6405 217.709 86.5706 219.014 88.0271C219.946 89.07 220.04 90.5382 220.179 90.8761H211.411C211.502 90.618 211.572 90.353 211.621 90.0838C211.976 88.9185 212.658 87.6951 213.73 87.1416C214.194 86.8695 214.71 86.6988 215.245 86.6405H215.256ZM205.672 91.8841C205.672 95.0477 205.975 96.8887 207.805 99.3357C211.085 103.734 218.14 104.579 222.504 101.666C223.902 100.734 224.339 100.425 224.339 98.8638C224.309 98.4469 224.165 98.0462 223.922 97.7057C223.68 97.3651 223.348 97.0976 222.964 96.9323C222.58 96.767 222.158 96.7103 221.744 96.7684C221.33 96.8265 220.94 96.9971 220.616 97.2616C219.257 98.2895 217.555 98.7547 215.862 98.5609C213.45 98.4094 211.673 96.4052 211.522 94.6282H222.219C222.789 94.6711 223.362 94.6299 223.92 94.5058L224.776 94.0514C225.206 93.7163 225.518 93.2531 225.668 92.7289C225.801 92.2294 225.831 91.708 225.755 91.1966C225.72 90.1644 225.509 89.1458 225.132 88.1845C224.532 86.5467 223.506 85.0986 222.16 83.9896C221.504 83.4331 220.765 82.9829 219.97 82.6554C216.864 81.1989 212.873 81.8106 210.112 83.6342C208.795 84.5833 207.712 85.8191 206.943 87.2482C206.174 88.6773 205.739 90.2625 205.672 91.8841ZM290.833 99.1493C289.621 99.1493 288.806 99.1842 287.879 98.2695C286.295 96.6907 287.413 92.7696 293.234 94.0281L294.982 94.5117C294.982 96.2304 294.917 96.982 294.014 97.8792C293.159 98.6957 292.022 99.1506 290.839 99.1493H290.833ZM283.16 85.2306C283.16 87.5203 285.007 88.0738 286.784 87.5611C287.132 87.4561 287.486 87.3724 287.844 87.3105C289.651 86.9901 292.354 86.7862 293.781 88.0505C294.585 88.7613 294.865 89.6235 294.865 91.1034C292.249 90.4916 292.878 90.2935 289.319 90.2935C285.421 90.2935 281.546 92.2977 281.546 96.5508C281.546 98.7298 282.088 100.495 283.661 101.695C285.118 102.732 286.857 103.298 288.645 103.316C290.432 103.334 292.182 102.802 293.659 101.794C294.049 101.515 294.48 101.043 294.865 100.786C294.864 101.088 294.929 101.387 295.055 101.662C295.181 101.936 295.364 102.18 295.593 102.377C297.254 103.933 300.516 102.89 300.516 100.583V90.1712C300.496 88.9869 300.267 87.8154 299.841 86.7104C299.401 85.5133 298.626 84.4677 297.609 83.6983C294.317 81.0416 285.957 81.9505 284.098 83.442C283.821 83.6535 283.593 83.9233 283.431 84.2323C283.269 84.5413 283.176 84.882 283.16 85.2306ZM156.622 84.8228V96.1313C156.622 102.878 163.508 104.766 167.22 102.284C168.109 101.64 168.92 100.895 169.637 100.064C169.606 100.829 169.869 101.578 170.372 102.156C171.962 104.014 175.493 102.942 175.493 100.466V84.6247C175.493 82.6671 172.58 80.8435 170.523 82.8768C170.245 83.1177 170.022 83.4156 169.869 83.7504C169.716 84.0852 169.637 84.4489 169.637 84.8169C169.585 87.095 169.9 94.0106 169.352 95.6245C169.134 96.2799 168.729 96.8571 168.187 97.2849C166.59 98.3744 163.66 98.2579 162.763 95.6245C162.267 94.1738 162.495 86.9144 162.483 84.8169C162.483 81.8572 158.265 80.8318 156.89 83.6517C156.705 84.0118 156.613 84.4123 156.622 84.8169V84.8228ZM147.341 97.1334C147.341 99.1609 144.2 98.7531 142.977 98.4618C141.872 98.1862 140.812 97.7525 139.831 97.1742C139.605 97.0231 139.369 96.8869 139.126 96.7664C136.3 95.5604 134.465 99.4464 137.087 101.025C140.07 102.826 144.16 103.938 147.76 102.896C150.359 102.126 152.584 100.227 152.584 97.2325C152.584 95.3506 152.584 94.3485 151.151 92.9211C149.403 91.1733 147.195 90.7072 144.905 89.8799C144.078 89.5827 142.196 88.9302 142.196 87.9514C142.196 85.318 146.904 86.8503 148.687 87.7184C151.844 89.2506 153.604 84.9742 150.941 83.5468C148.279 82.1194 144.171 81.2572 140.938 82.5622C139.388 83.1442 138.131 84.3131 137.437 85.8158C136.744 87.3186 136.67 89.0341 137.232 90.5907C137.926 92.5016 139.767 93.6902 141.753 94.3427C142.301 94.5233 142.715 94.6865 143.268 94.8496C144.358 95.17 147.347 95.7876 147.347 97.1334H147.341ZM368.327 79.5792V82.201C364.831 82.201 364.604 87.2464 368.327 87.2464V97.5354C368.327 100.897 370.221 103.181 373.571 103.181C375.214 103.181 377.841 103.251 378.814 101.754C379.052 101.402 379.189 100.992 379.21 100.568C379.232 100.143 379.137 99.7215 378.937 99.3474C378.785 99.035 378.569 98.7589 378.301 98.5377C378.034 98.3166 377.722 98.1555 377.387 98.0656C376.222 97.7743 374.188 98.8114 374.188 95.8226V87.2464H377.014C377.669 87.1842 378.275 86.8688 378.701 86.3672C379.128 85.8656 379.342 85.2175 379.298 84.5606C378.989 81.7873 376.163 82.2301 374.188 82.2301V79.4103C374.117 78.7376 373.818 78.1098 373.339 77.6315C372.861 77.1533 372.233 76.8536 371.561 76.7827C371.159 76.7335 370.751 76.7696 370.364 76.8887C369.977 77.0078 369.62 77.2073 369.315 77.4739C369.01 77.7406 368.766 78.0686 368.596 78.4364C368.427 78.8042 368.337 79.2035 368.333 79.6083L368.327 79.5792ZM230.183 84.9276V100.157C230.183 101.695 231.523 103.07 232.811 103.07C235.56 103.07 236.137 101.474 236.137 98.9337C236.137 95.0185 235.409 90.078 239.196 88.1728C240.868 87.3338 242.901 87.5902 242.901 84.7121C242.901 82.6321 240.728 81.2164 238.526 82.4573C238.17 82.6998 237.85 82.9921 237.576 83.3254C237.272 83.6368 237.012 83.9875 236.801 84.3683L236.137 85.5336C236.137 80.5405 230.183 81.3271 230.183 84.9509V84.9276ZM305.562 84.6247V100.559C305.562 101.765 306.954 103.082 308.184 103.082C309.413 103.082 310.089 102.948 310.887 101.847C312.722 99.3066 308.9 89.6119 315.548 87.7475C317.517 87.1649 318.17 86.6638 318.17 84.4208C318.153 84.0979 318.071 83.7817 317.929 83.4913C317.787 83.2009 317.587 82.9424 317.342 82.7312C316.096 81.496 314.161 81.8572 312.897 83.3138C312.602 83.6641 312.333 84.0361 312.093 84.4266L311.411 85.6442C311.411 84.4033 311.336 83.7741 310.73 83.0982C310.368 82.6458 309.879 82.3117 309.326 82.1386C308.773 81.9654 308.181 81.9612 307.625 82.1263C307.07 82.2914 306.576 82.6185 306.208 83.0656C305.839 83.5127 305.612 84.0596 305.556 84.6363L305.562 84.6247ZM57.4255 47.5703L57.4838 47.6111L57.5479 47.3023L56.9653 42.9967C55.8 34.7644 52.887 25.7397 48.7213 18.5269C48.4066 17.9792 48.1386 17.4956 47.7891 16.9422C46.4074 14.6698 44.8469 12.5112 43.1223 10.4868C42.866 10.2129 42.8019 10.0615 42.5397 9.7818C41.5784 8.83213 40.5064 7.45133 39.4285 6.63567C39.1314 6.40845 39.0207 6.22784 38.7527 6.00062C38.1701 5.52287 33.6956 1.81161 32.8916 1.99222C31.6622 2.27187 25.9002 5.33644 24.5951 6.21619C22.8216 7.34007 21.1119 8.56156 19.4739 9.87502C19.1943 10.1022 19.0311 10.2537 18.7573 10.4576C18.4835 10.6615 18.3669 10.813 18.1106 11.0402L14.8421 14.1223C14.6149 14.3495 14.4518 14.501 14.2304 14.7049L10.8279 18.7832C9.52531 20.4736 8.33052 22.2444 7.25063 24.085L5.89313 26.4563C4.26123 29.6183 2.95152 32.9365 1.98377 36.3607C0.767782 40.6101 0.103968 44.9983 0.00870424 49.4172V49.4463C-0.0328104 51.8568 0.0742053 54.2676 0.329143 56.6649C0.399057 57.2883 0.591321 58.2613 0.591321 58.9022L12.5583 53.6004C13.6478 53.2158 14.5625 52.8663 15.6869 52.4934C21.3503 50.5872 27.1695 49.1796 33.078 48.2869C34.2957 48.1121 35.5541 47.9548 36.9116 47.7859C37.4942 47.7101 38.1351 47.6693 38.8401 47.5994C39.5142 47.5026 40.1929 47.4404 40.8734 47.413C42.2251 47.413 43.4894 47.2091 45.0158 47.2091C45.7165 47.2441 46.4184 47.2441 47.1191 47.2091C48.8261 47.0168 47.9813 47.2091 49.1466 47.2091H51.2789L55.3864 47.4363C56.0627 47.5424 56.7469 47.5892 57.4314 47.5761L57.4255 47.5703Z" fill="#393185"/>
</svg>
