<svg width="250" height="104" viewBox="0 0 250 104" fill="none" xmlns="http://www.w3.org/2000/svg">
<path fill-rule="evenodd" clip-rule="evenodd" d="M40.5096 25.5977L56.9972 19.503L75.3167 0H99.1322L154.702 10.9704L166.915 17.0651L183.402 33.5208H189.509L194.394 38.3965H183.402L168.136 22.5503L162.64 20.1125L173.632 40.8344C176.074 44.0849 180.96 52.4143 180.96 59.7279C190.323 60.1342 210.149 61.4344 214.545 63.3847C185.031 64.6036 107.437 66.3102 33.1818 63.3847C40.5096 62.3689 57.73 60.3374 67.9889 60.3374L85.6978 42.6628V35.3492C84.8836 32.505 82.2782 28.5231 78.37 35.3492L75.9274 45.1007H69.8209L55.7759 31.0829L63.7144 26.8166L40.5096 25.5977ZM78.9807 59.7279L99.7428 38.3965L126.001 37.787L143.71 31.6924L153.48 41.4438L168.136 45.1007L173.021 55.4616L170.578 59.7279L137.603 58.509L149.206 46.9291V42.0533L142.488 35.3492L132.718 38.3965L139.435 45.1007V48.148L130.275 57.29H121.726L111.956 40.8344H101.575L96.6896 46.3196H105.239L113.788 55.4616V58.509L78.9807 59.7279ZM64 35L61 32L63 31L64 35Z" fill="#F50401"/>
<path fill-rule="evenodd" clip-rule="evenodd" d="M182.273 102.503L196.364 78.4119H203.182L217.5 102.503H206.364L205.227 98.4119H194.773L192.955 102.503H182.273ZM202.727 93.4119L199.773 87.2755L196.818 93.4119H202.727Z" fill="#010101"/>
<path d="M218.636 87.0482L219.091 78.4119H249.545L250 87.0482L239.545 85.23C238.864 93.6391 240.682 102.503 240.682 102.503H227.727C227.727 102.503 229.545 92.5028 229.091 85.23L218.636 87.0482Z" fill="#010101"/>
<path fill-rule="evenodd" clip-rule="evenodd" d="M87.7273 77.2753C79.8749 77.1615 72.0281 80.8365 71.1364 88.6389C70.1804 97.0027 78.6374 102.77 87.0454 103.184C95.467 103.599 104.376 98.6614 104.318 90.2298C104.262 82.0097 95.9467 77.3944 87.7273 77.2753ZM87.5 84.3208C84.2839 84.3208 81.4568 86.348 81.1364 89.5481C80.7799 93.1081 84.1517 96.0395 87.7273 95.9117C91.1774 95.7885 94.1956 92.9845 93.8637 89.5481C93.5544 86.3469 90.7161 84.3208 87.5 84.3208Z" fill="#010101"/>
<path fill-rule="evenodd" clip-rule="evenodd" d="M0.454545 78.4277C1.66644 83.0081 2.90856 93.5085 0 102.503H13.4091C13.4091 102.503 12.6024 98.4166 12.5 95.9166H22.2687C33.7818 95.9166 34.9937 77.8031 22.2687 78.4277H0.454545ZM11.8182 90.6846V84.321H17.2727C22.7273 84.321 22.7273 90.6846 17.2727 90.6846H11.8182Z" fill="#010101"/>
<path fill-rule="evenodd" clip-rule="evenodd" d="M36.3636 78.4277C37.5755 83.0082 38.8176 93.5085 35.9091 102.503H49.3181C49.3181 102.503 48.5115 98.4167 48.4091 95.9167H53.2934L57.2727 102.503H69.0909L62.7272 95.2302C70 93.1846 70.4545 79.0937 58.1778 78.4277H36.3636ZM47.7272 90.6847V84.321H53.1818C58.6363 84.321 58.6363 90.6847 53.1818 90.6847H47.7272Z" fill="#010101"/>
<path fill-rule="evenodd" clip-rule="evenodd" d="M109.091 78.412C110.303 82.9924 111.545 93.4928 108.636 102.487H120V90.6846L128.182 102.487L136.364 90.6846L136.591 102.276H147.727C145.909 94.321 145.227 88.8664 147.955 78.4119H136.591L128.409 90.9119L120 78.412H109.091Z" fill="#010101"/>
<path fill-rule="evenodd" clip-rule="evenodd" d="M154.091 78.4119C155.303 82.9923 156.545 93.4927 153.636 102.487H178.636V95.23C172.727 96.1391 165 96.1391 165 96.1391V92.5028C165 92.5028 169.545 92.5028 174.545 93.4119C174.091 91.1391 174.318 90.0028 174.545 87.0482C170 87.9573 165 87.9573 165 87.9573V84.7755C165 84.7755 171.136 84.7755 178.636 85.4573V78.4119H154.091Z" fill="#010101"/>
</svg>
