<svg width="186" height="51" viewBox="0 0 186 51" fill="none" xmlns="http://www.w3.org/2000/svg">
<path d="M0 32.8271H186" stroke="#344860" stroke-width="2"/>
<mask id="path-2-inside-1" fill="white">
<path d="M0.388367 47.166V38.7348H6.51006V47.166H5.49358V39.6677H1.41626V47.166H0.388367ZM13.4589 40.7186C14.2127 40.7186 14.8181 40.9902 15.2749 41.5334C15.7399 42.0766 15.9716 42.8953 15.9716 43.9896C15.9716 45.0681 15.7399 45.8867 15.2749 46.4457C14.8181 47.0047 14.2095 47.2841 13.4475 47.2841C12.976 47.2841 12.5836 47.1936 12.2712 47.0125C11.9669 46.8236 11.727 46.6071 11.5516 46.363H11.4831C11.4986 46.4969 11.5141 46.6661 11.5288 46.8708C11.5443 47.0755 11.5516 47.2526 11.5516 47.4022V50H10.5466V40.8367H11.3689L11.5059 41.6987H11.5516C11.7344 41.4232 11.9742 41.191 12.2712 41.002C12.5681 40.8131 12.9646 40.7186 13.4589 40.7186ZM13.2762 41.5925C12.6521 41.5925 12.2108 41.7735 11.9514 42.1356C11.7001 42.4977 11.5671 43.0489 11.5516 43.7888V43.9896C11.5516 44.7689 11.674 45.3711 11.9171 45.7962C12.1684 46.2135 12.6293 46.4221 13.2991 46.4221C13.6727 46.4221 13.977 46.3158 14.2127 46.1033C14.4567 45.8907 14.6353 45.6033 14.7495 45.2412C14.8719 44.8712 14.9323 44.4501 14.9323 43.9778C14.9323 43.2535 14.7952 42.6749 14.5211 42.2419C14.2552 41.809 13.8399 41.5925 13.2762 41.5925ZM24.8368 43.9896C24.8368 45.0365 24.5782 45.8474 24.0601 46.4221C23.5503 46.9967 22.8577 47.2841 21.9815 47.2841C21.4414 47.2841 20.9577 47.1582 20.531 46.9062C20.1125 46.6464 19.7813 46.2725 19.5374 45.7844C19.2943 45.2885 19.1719 44.6902 19.1719 43.9896C19.1719 42.9426 19.4273 42.1356 19.9371 41.5688C20.4478 41.002 21.1404 40.7186 22.0158 40.7186C22.5721 40.7186 23.0592 40.8485 23.4777 41.1083C23.9043 41.3603 24.2355 41.7302 24.4713 42.2183C24.7152 42.6985 24.8368 43.2889 24.8368 43.9896ZM20.2112 43.9896C20.2112 44.7375 20.3524 45.3317 20.6338 45.7726C20.9234 46.2056 21.3803 46.4221 22.0043 46.4221C22.6211 46.4221 23.0747 46.2056 23.3634 45.7726C23.6531 45.3317 23.7974 44.7375 23.7974 43.9896C23.7974 43.2417 23.6531 42.6552 23.3634 42.2301C23.0747 41.805 22.6178 41.5925 21.9929 41.5925C21.3688 41.5925 20.9161 41.805 20.6338 42.2301C20.3524 42.6552 20.2112 43.2417 20.2112 43.9896ZM34.9387 40.8367V47.166H34.0364V43.1275C34.0364 42.9622 34.0405 42.7891 34.0478 42.608C34.0633 42.4269 34.078 42.2498 34.0935 42.0766H34.0593L32.0606 47.166H31.2154L29.2738 42.0766H29.2396C29.2624 42.4309 29.2738 42.793 29.2738 43.163V47.166H28.3716V40.8367H29.7078L31.638 45.9261L33.6024 40.8367H34.9387ZM38.8341 47.166V40.8367H39.8391V43.4346H41.4267C42.2188 43.4346 42.8053 43.5841 43.1855 43.8833C43.5665 44.1825 43.7565 44.6312 43.7565 45.2294C43.7565 45.8199 43.5706 46.2922 43.1969 46.6464C42.8241 46.9928 42.2188 47.166 41.381 47.166H38.8341ZM44.773 47.166V40.8367H45.7781V47.166H44.773ZM41.2896 46.3276C41.7236 46.3276 42.0777 46.2528 42.3518 46.1033C42.6259 45.9458 42.7629 45.6742 42.7629 45.2885C42.7629 44.9028 42.6373 44.643 42.386 44.5091C42.1348 44.3674 41.7734 44.2966 41.301 44.2966H39.8391V46.3276H41.2896ZM57.9684 40.8367V47.166H49.6653V40.8367H50.6704V46.2922H53.3086V40.8367H54.3137V46.2922H56.9634V40.8367H57.9684ZM66.5277 47.166H65.5112V41.6987H63.7067C63.608 43.0291 63.4709 44.1037 63.2955 44.9224C63.1201 45.7332 62.8884 46.3236 62.5988 46.6937C62.3092 47.0637 61.9438 47.2487 61.5024 47.2487C61.4037 47.2487 61.3042 47.2408 61.2055 47.2251C61.1141 47.2172 61.0382 47.1975 60.9771 47.166V46.3867C61.0227 46.4024 61.0725 46.4142 61.1255 46.4221C61.1785 46.4299 61.2324 46.4339 61.2854 46.4339C61.6966 46.4339 62.0237 45.9812 62.2676 45.0759C62.5189 44.1706 62.709 42.7575 62.8387 40.8367H66.5277V47.166ZM72.7766 40.7186C73.302 40.7186 73.7507 40.8367 74.1243 41.0729C74.5045 41.3091 74.7941 41.6437 74.9923 42.0766C75.1979 42.5017 75.3007 43.0016 75.3007 43.5763V44.2021H71.1092C71.1238 44.9185 71.2992 45.4656 71.6345 45.8435C71.9772 46.2135 72.4528 46.3985 73.0622 46.3985C73.4505 46.3985 73.7931 46.363 74.0901 46.2922C74.3943 46.2135 74.7068 46.1033 75.0266 45.9616V46.8708C74.7141 47.0125 74.4058 47.1148 74.1015 47.1778C73.7964 47.2487 73.435 47.2841 73.0165 47.2841C72.4373 47.2841 71.9233 47.162 71.4746 46.918C71.0325 46.674 70.6866 46.3118 70.4353 45.8317C70.1914 45.3436 70.0698 44.7493 70.0698 44.0486C70.0698 43.3559 70.18 42.7615 70.4011 42.2655C70.6295 41.7696 70.9452 41.3878 71.349 41.1201C71.7602 40.8525 72.2358 40.7186 72.7766 40.7186ZM72.7652 41.5688C72.2855 41.5688 71.9046 41.7302 71.6231 42.053C71.349 42.3678 71.185 42.8087 71.132 43.3755H74.25C74.2418 42.8402 74.1202 42.4072 73.8845 42.0766C73.6479 41.7381 73.2751 41.5688 72.7652 41.5688ZM79.8055 40.8367V43.47H83.129V40.8367H84.1341V47.166H83.129V44.3438H79.8055V47.166H78.8004V40.8367H79.8055ZM89.019 40.8367V43.47H92.3425V40.8367H93.3476V47.166H92.3425V44.3438H89.019V47.166H88.0139V40.8367H89.019ZM97.2275 47.166V40.8367H98.2325V43.4346H99.8201C100.612 43.4346 101.199 43.5841 101.579 43.8833C101.96 44.1825 102.15 44.6312 102.15 45.2294C102.15 45.8199 101.964 46.2922 101.59 46.6464C101.217 46.9928 100.612 47.166 99.7744 47.166H97.2275ZM103.166 47.166V40.8367H104.171V47.166H103.166ZM99.683 46.3276C100.117 46.3276 100.471 46.2528 100.745 46.1033C101.019 45.9458 101.156 45.6742 101.156 45.2885C101.156 44.9028 101.031 44.643 100.779 44.5091C100.528 44.3674 100.167 44.2966 99.6944 44.2966H98.2325V46.3276H99.683ZM110.423 40.7186C110.948 40.7186 111.397 40.8367 111.771 41.0729C112.151 41.3091 112.44 41.6437 112.639 42.0766C112.844 42.5017 112.947 43.0016 112.947 43.5763V44.2021H108.755C108.77 44.9185 108.945 45.4656 109.281 45.8435C109.623 46.2135 110.099 46.3985 110.708 46.3985C111.097 46.3985 111.439 46.363 111.736 46.2922C112.041 46.2135 112.353 46.1033 112.673 45.9616V46.8708C112.36 47.0125 112.052 47.1148 111.748 47.1778C111.443 47.2487 111.081 47.2841 110.663 47.2841C110.083 47.2841 109.57 47.162 109.121 46.918C108.679 46.674 108.333 46.3118 108.082 45.8317C107.838 45.3436 107.716 44.7493 107.716 44.0486C107.716 43.3559 107.826 42.7615 108.047 42.2655C108.276 41.7696 108.591 41.3878 108.995 41.1201C109.406 40.8525 109.882 40.7186 110.423 40.7186ZM110.411 41.5688C109.932 41.5688 109.551 41.7302 109.269 42.053C108.995 42.3678 108.831 42.8087 108.778 43.3755H111.896C111.888 42.8402 111.766 42.4072 111.531 42.0766C111.294 41.7381 110.921 41.5688 110.411 41.5688ZM129.918 40.7423C130.527 40.7973 131.057 40.9627 131.505 41.2382C131.962 41.5138 132.316 41.8837 132.567 42.3482C132.819 42.8127 132.944 43.3637 132.944 44.0014C132.944 44.9539 132.674 45.7136 132.133 46.2804C131.601 46.8472 130.862 47.1739 129.918 47.2605V50H128.936V47.2605C128.334 47.2054 127.805 47.044 127.348 46.7763C126.891 46.5008 126.537 46.1308 126.286 45.6663C126.035 45.194 125.909 44.639 125.909 44.0014C125.909 43.0409 126.176 42.2773 126.708 41.7105C127.249 41.1437 128.003 40.821 128.97 40.7423V38.1917H129.918V40.7423ZM128.97 41.6043C128.27 41.6751 127.759 41.9152 127.439 42.3246C127.12 42.7261 126.96 43.285 126.96 44.0014C126.96 44.7177 127.12 45.2806 127.439 45.69C127.767 46.0993 128.277 46.3394 128.97 46.4103V41.6043ZM129.918 46.4103C130.603 46.3316 131.106 46.0875 131.425 45.6782C131.745 45.2688 131.905 44.7099 131.905 44.0014C131.905 43.2929 131.742 42.7379 131.414 42.3364C131.094 41.9349 130.596 41.6948 129.918 41.6161V46.4103ZM137.429 44.6981C137.429 44.7925 137.425 44.9342 137.417 45.1232C137.41 45.3121 137.399 45.501 137.383 45.69C137.376 45.8789 137.368 46.0284 137.36 46.1387L140.638 40.8367H141.872V47.166H140.935V43.4346C140.935 43.3086 140.935 43.1433 140.935 42.9386C140.942 42.7339 140.951 42.5332 140.958 42.3364C140.965 42.1317 140.973 41.9782 140.981 41.8759L137.726 47.166H136.481V40.8367H137.429V44.6981ZM150.421 47.166H149.405V41.6987H147.6C147.501 43.0291 147.364 44.1037 147.189 44.9224C147.013 45.7332 146.782 46.3236 146.492 46.6937C146.203 47.0637 145.837 47.2487 145.396 47.2487C145.297 47.2487 145.198 47.2408 145.099 47.2251C145.007 47.2172 144.932 47.1975 144.87 47.166V46.3867C144.916 46.4024 144.966 46.4142 145.019 46.4221C145.072 46.4299 145.126 46.4339 145.179 46.4339C145.59 46.4339 145.917 45.9812 146.161 45.0759C146.412 44.1706 146.602 42.7575 146.732 40.8367H150.421V47.166ZM157.127 43.4346C158.718 43.4346 159.514 44.0328 159.514 45.2294C159.514 45.8199 159.32 46.2922 158.931 46.6464C158.543 46.9928 157.926 47.166 157.081 47.166H154.306V40.8367H155.311V43.4346H157.127ZM158.509 45.2885C158.509 44.9028 158.375 44.643 158.109 44.5091C157.85 44.3674 157.484 44.2966 157.013 44.2966H155.311V46.3276H157.035C157.461 46.3276 157.812 46.2489 158.086 46.0914C158.368 45.934 158.509 45.6663 158.509 45.2885ZM166.685 41.7105H164.687V47.166H163.693V41.7105H161.717V40.8367H166.685V41.7105ZM172.745 40.7186C173.499 40.7186 174.104 40.9902 174.561 41.5334C175.026 42.0766 175.258 42.8953 175.258 43.9896C175.258 45.0681 175.026 45.8867 174.561 46.4457C174.104 47.0047 173.496 47.2841 172.734 47.2841C172.262 47.2841 171.87 47.1936 171.557 47.0125C171.253 46.8236 171.013 46.6071 170.838 46.363H170.769C170.785 46.4969 170.8 46.6661 170.815 46.8708C170.83 47.0755 170.838 47.2526 170.838 47.4022V50H169.833V40.8367H170.655L170.792 41.6987H170.838C171.021 41.4232 171.26 41.191 171.557 41.002C171.854 40.8131 172.251 40.7186 172.745 40.7186ZM172.562 41.5925C171.938 41.5925 171.497 41.7735 171.238 42.1356C170.986 42.4977 170.853 43.0489 170.838 43.7888V43.9896C170.838 44.7689 170.96 45.3711 171.203 45.7962C171.455 46.2135 171.915 46.4221 172.585 46.4221C172.959 46.4221 173.263 46.3158 173.499 46.1033C173.743 45.8907 173.921 45.6033 174.036 45.2412C174.158 44.8712 174.218 44.4501 174.218 43.9778C174.218 43.2535 174.081 42.6749 173.807 42.2419C173.541 41.809 173.126 41.5925 172.562 41.5925ZM178.802 47.166V40.8367H179.807V43.4346H181.394C182.185 43.4346 182.772 43.5841 183.153 43.8833C183.533 44.1825 183.724 44.6312 183.724 45.2294C183.724 45.8199 183.537 46.2922 183.164 46.6464C182.791 46.9928 182.185 47.166 181.348 47.166H178.802ZM184.74 47.166V40.8367H185.746V47.166H184.74ZM181.257 46.3276C181.691 46.3276 182.045 46.2528 182.319 46.1033C182.593 45.9458 182.73 45.6742 182.73 45.2885C182.73 44.9028 182.605 44.643 182.353 44.5091C182.102 44.3674 181.74 44.2966 181.268 44.2966H179.807V46.3276H181.257Z"/>
</mask>
<path d="M0.388367 47.166V38.7348H6.51006V47.166H5.49358V39.6677H1.41626V47.166H0.388367ZM13.4589 40.7186C14.2127 40.7186 14.8181 40.9902 15.2749 41.5334C15.7399 42.0766 15.9716 42.8953 15.9716 43.9896C15.9716 45.0681 15.7399 45.8867 15.2749 46.4457C14.8181 47.0047 14.2095 47.2841 13.4475 47.2841C12.976 47.2841 12.5836 47.1936 12.2712 47.0125C11.9669 46.8236 11.727 46.6071 11.5516 46.363H11.4831C11.4986 46.4969 11.5141 46.6661 11.5288 46.8708C11.5443 47.0755 11.5516 47.2526 11.5516 47.4022V50H10.5466V40.8367H11.3689L11.5059 41.6987H11.5516C11.7344 41.4232 11.9742 41.191 12.2712 41.002C12.5681 40.8131 12.9646 40.7186 13.4589 40.7186ZM13.2762 41.5925C12.6521 41.5925 12.2108 41.7735 11.9514 42.1356C11.7001 42.4977 11.5671 43.0489 11.5516 43.7888V43.9896C11.5516 44.7689 11.674 45.3711 11.9171 45.7962C12.1684 46.2135 12.6293 46.4221 13.2991 46.4221C13.6727 46.4221 13.977 46.3158 14.2127 46.1033C14.4567 45.8907 14.6353 45.6033 14.7495 45.2412C14.8719 44.8712 14.9323 44.4501 14.9323 43.9778C14.9323 43.2535 14.7952 42.6749 14.5211 42.2419C14.2552 41.809 13.8399 41.5925 13.2762 41.5925ZM24.8368 43.9896C24.8368 45.0365 24.5782 45.8474 24.0601 46.4221C23.5503 46.9967 22.8577 47.2841 21.9815 47.2841C21.4414 47.2841 20.9577 47.1582 20.531 46.9062C20.1125 46.6464 19.7813 46.2725 19.5374 45.7844C19.2943 45.2885 19.1719 44.6902 19.1719 43.9896C19.1719 42.9426 19.4273 42.1356 19.9371 41.5688C20.4478 41.002 21.1404 40.7186 22.0158 40.7186C22.5721 40.7186 23.0592 40.8485 23.4777 41.1083C23.9043 41.3603 24.2355 41.7302 24.4713 42.2183C24.7152 42.6985 24.8368 43.2889 24.8368 43.9896ZM20.2112 43.9896C20.2112 44.7375 20.3524 45.3317 20.6338 45.7726C20.9234 46.2056 21.3803 46.4221 22.0043 46.4221C22.6211 46.4221 23.0747 46.2056 23.3634 45.7726C23.6531 45.3317 23.7974 44.7375 23.7974 43.9896C23.7974 43.2417 23.6531 42.6552 23.3634 42.2301C23.0747 41.805 22.6178 41.5925 21.9929 41.5925C21.3688 41.5925 20.9161 41.805 20.6338 42.2301C20.3524 42.6552 20.2112 43.2417 20.2112 43.9896ZM34.9387 40.8367V47.166H34.0364V43.1275C34.0364 42.9622 34.0405 42.7891 34.0478 42.608C34.0633 42.4269 34.078 42.2498 34.0935 42.0766H34.0593L32.0606 47.166H31.2154L29.2738 42.0766H29.2396C29.2624 42.4309 29.2738 42.793 29.2738 43.163V47.166H28.3716V40.8367H29.7078L31.638 45.9261L33.6024 40.8367H34.9387ZM38.8341 47.166V40.8367H39.8391V43.4346H41.4267C42.2188 43.4346 42.8053 43.5841 43.1855 43.8833C43.5665 44.1825 43.7565 44.6312 43.7565 45.2294C43.7565 45.8199 43.5706 46.2922 43.1969 46.6464C42.8241 46.9928 42.2188 47.166 41.381 47.166H38.8341ZM44.773 47.166V40.8367H45.7781V47.166H44.773ZM41.2896 46.3276C41.7236 46.3276 42.0777 46.2528 42.3518 46.1033C42.6259 45.9458 42.7629 45.6742 42.7629 45.2885C42.7629 44.9028 42.6373 44.643 42.386 44.5091C42.1348 44.3674 41.7734 44.2966 41.301 44.2966H39.8391V46.3276H41.2896ZM57.9684 40.8367V47.166H49.6653V40.8367H50.6704V46.2922H53.3086V40.8367H54.3137V46.2922H56.9634V40.8367H57.9684ZM66.5277 47.166H65.5112V41.6987H63.7067C63.608 43.0291 63.4709 44.1037 63.2955 44.9224C63.1201 45.7332 62.8884 46.3236 62.5988 46.6937C62.3092 47.0637 61.9438 47.2487 61.5024 47.2487C61.4037 47.2487 61.3042 47.2408 61.2055 47.2251C61.1141 47.2172 61.0382 47.1975 60.9771 47.166V46.3867C61.0227 46.4024 61.0725 46.4142 61.1255 46.4221C61.1785 46.4299 61.2324 46.4339 61.2854 46.4339C61.6966 46.4339 62.0237 45.9812 62.2676 45.0759C62.5189 44.1706 62.709 42.7575 62.8387 40.8367H66.5277V47.166ZM72.7766 40.7186C73.302 40.7186 73.7507 40.8367 74.1243 41.0729C74.5045 41.3091 74.7941 41.6437 74.9923 42.0766C75.1979 42.5017 75.3007 43.0016 75.3007 43.5763V44.2021H71.1092C71.1238 44.9185 71.2992 45.4656 71.6345 45.8435C71.9772 46.2135 72.4528 46.3985 73.0622 46.3985C73.4505 46.3985 73.7931 46.363 74.0901 46.2922C74.3943 46.2135 74.7068 46.1033 75.0266 45.9616V46.8708C74.7141 47.0125 74.4058 47.1148 74.1015 47.1778C73.7964 47.2487 73.435 47.2841 73.0165 47.2841C72.4373 47.2841 71.9233 47.162 71.4746 46.918C71.0325 46.674 70.6866 46.3118 70.4353 45.8317C70.1914 45.3436 70.0698 44.7493 70.0698 44.0486C70.0698 43.3559 70.18 42.7615 70.4011 42.2655C70.6295 41.7696 70.9452 41.3878 71.349 41.1201C71.7602 40.8525 72.2358 40.7186 72.7766 40.7186ZM72.7652 41.5688C72.2855 41.5688 71.9046 41.7302 71.6231 42.053C71.349 42.3678 71.185 42.8087 71.132 43.3755H74.25C74.2418 42.8402 74.1202 42.4072 73.8845 42.0766C73.6479 41.7381 73.2751 41.5688 72.7652 41.5688ZM79.8055 40.8367V43.47H83.129V40.8367H84.1341V47.166H83.129V44.3438H79.8055V47.166H78.8004V40.8367H79.8055ZM89.019 40.8367V43.47H92.3425V40.8367H93.3476V47.166H92.3425V44.3438H89.019V47.166H88.0139V40.8367H89.019ZM97.2275 47.166V40.8367H98.2325V43.4346H99.8201C100.612 43.4346 101.199 43.5841 101.579 43.8833C101.96 44.1825 102.15 44.6312 102.15 45.2294C102.15 45.8199 101.964 46.2922 101.59 46.6464C101.217 46.9928 100.612 47.166 99.7744 47.166H97.2275ZM103.166 47.166V40.8367H104.171V47.166H103.166ZM99.683 46.3276C100.117 46.3276 100.471 46.2528 100.745 46.1033C101.019 45.9458 101.156 45.6742 101.156 45.2885C101.156 44.9028 101.031 44.643 100.779 44.5091C100.528 44.3674 100.167 44.2966 99.6944 44.2966H98.2325V46.3276H99.683ZM110.423 40.7186C110.948 40.7186 111.397 40.8367 111.771 41.0729C112.151 41.3091 112.44 41.6437 112.639 42.0766C112.844 42.5017 112.947 43.0016 112.947 43.5763V44.2021H108.755C108.77 44.9185 108.945 45.4656 109.281 45.8435C109.623 46.2135 110.099 46.3985 110.708 46.3985C111.097 46.3985 111.439 46.363 111.736 46.2922C112.041 46.2135 112.353 46.1033 112.673 45.9616V46.8708C112.36 47.0125 112.052 47.1148 111.748 47.1778C111.443 47.2487 111.081 47.2841 110.663 47.2841C110.083 47.2841 109.57 47.162 109.121 46.918C108.679 46.674 108.333 46.3118 108.082 45.8317C107.838 45.3436 107.716 44.7493 107.716 44.0486C107.716 43.3559 107.826 42.7615 108.047 42.2655C108.276 41.7696 108.591 41.3878 108.995 41.1201C109.406 40.8525 109.882 40.7186 110.423 40.7186ZM110.411 41.5688C109.932 41.5688 109.551 41.7302 109.269 42.053C108.995 42.3678 108.831 42.8087 108.778 43.3755H111.896C111.888 42.8402 111.766 42.4072 111.531 42.0766C111.294 41.7381 110.921 41.5688 110.411 41.5688ZM129.918 40.7423C130.527 40.7973 131.057 40.9627 131.505 41.2382C131.962 41.5138 132.316 41.8837 132.567 42.3482C132.819 42.8127 132.944 43.3637 132.944 44.0014C132.944 44.9539 132.674 45.7136 132.133 46.2804C131.601 46.8472 130.862 47.1739 129.918 47.2605V50H128.936V47.2605C128.334 47.2054 127.805 47.044 127.348 46.7763C126.891 46.5008 126.537 46.1308 126.286 45.6663C126.035 45.194 125.909 44.639 125.909 44.0014C125.909 43.0409 126.176 42.2773 126.708 41.7105C127.249 41.1437 128.003 40.821 128.97 40.7423V38.1917H129.918V40.7423ZM128.97 41.6043C128.27 41.6751 127.759 41.9152 127.439 42.3246C127.12 42.7261 126.96 43.285 126.96 44.0014C126.96 44.7177 127.12 45.2806 127.439 45.69C127.767 46.0993 128.277 46.3394 128.97 46.4103V41.6043ZM129.918 46.4103C130.603 46.3316 131.106 46.0875 131.425 45.6782C131.745 45.2688 131.905 44.7099 131.905 44.0014C131.905 43.2929 131.742 42.7379 131.414 42.3364C131.094 41.9349 130.596 41.6948 129.918 41.6161V46.4103ZM137.429 44.6981C137.429 44.7925 137.425 44.9342 137.417 45.1232C137.41 45.3121 137.399 45.501 137.383 45.69C137.376 45.8789 137.368 46.0284 137.36 46.1387L140.638 40.8367H141.872V47.166H140.935V43.4346C140.935 43.3086 140.935 43.1433 140.935 42.9386C140.942 42.7339 140.951 42.5332 140.958 42.3364C140.965 42.1317 140.973 41.9782 140.981 41.8759L137.726 47.166H136.481V40.8367H137.429V44.6981ZM150.421 47.166H149.405V41.6987H147.6C147.501 43.0291 147.364 44.1037 147.189 44.9224C147.013 45.7332 146.782 46.3236 146.492 46.6937C146.203 47.0637 145.837 47.2487 145.396 47.2487C145.297 47.2487 145.198 47.2408 145.099 47.2251C145.007 47.2172 144.932 47.1975 144.87 47.166V46.3867C144.916 46.4024 144.966 46.4142 145.019 46.4221C145.072 46.4299 145.126 46.4339 145.179 46.4339C145.59 46.4339 145.917 45.9812 146.161 45.0759C146.412 44.1706 146.602 42.7575 146.732 40.8367H150.421V47.166ZM157.127 43.4346C158.718 43.4346 159.514 44.0328 159.514 45.2294C159.514 45.8199 159.32 46.2922 158.931 46.6464C158.543 46.9928 157.926 47.166 157.081 47.166H154.306V40.8367H155.311V43.4346H157.127ZM158.509 45.2885C158.509 44.9028 158.375 44.643 158.109 44.5091C157.85 44.3674 157.484 44.2966 157.013 44.2966H155.311V46.3276H157.035C157.461 46.3276 157.812 46.2489 158.086 46.0914C158.368 45.934 158.509 45.6663 158.509 45.2885ZM166.685 41.7105H164.687V47.166H163.693V41.7105H161.717V40.8367H166.685V41.7105ZM172.745 40.7186C173.499 40.7186 174.104 40.9902 174.561 41.5334C175.026 42.0766 175.258 42.8953 175.258 43.9896C175.258 45.0681 175.026 45.8867 174.561 46.4457C174.104 47.0047 173.496 47.2841 172.734 47.2841C172.262 47.2841 171.87 47.1936 171.557 47.0125C171.253 46.8236 171.013 46.6071 170.838 46.363H170.769C170.785 46.4969 170.8 46.6661 170.815 46.8708C170.83 47.0755 170.838 47.2526 170.838 47.4022V50H169.833V40.8367H170.655L170.792 41.6987H170.838C171.021 41.4232 171.26 41.191 171.557 41.002C171.854 40.8131 172.251 40.7186 172.745 40.7186ZM172.562 41.5925C171.938 41.5925 171.497 41.7735 171.238 42.1356C170.986 42.4977 170.853 43.0489 170.838 43.7888V43.9896C170.838 44.7689 170.96 45.3711 171.203 45.7962C171.455 46.2135 171.915 46.4221 172.585 46.4221C172.959 46.4221 173.263 46.3158 173.499 46.1033C173.743 45.8907 173.921 45.6033 174.036 45.2412C174.158 44.8712 174.218 44.4501 174.218 43.9778C174.218 43.2535 174.081 42.6749 173.807 42.2419C173.541 41.809 173.126 41.5925 172.562 41.5925ZM178.802 47.166V40.8367H179.807V43.4346H181.394C182.185 43.4346 182.772 43.5841 183.153 43.8833C183.533 44.1825 183.724 44.6312 183.724 45.2294C183.724 45.8199 183.537 46.2922 183.164 46.6464C182.791 46.9928 182.185 47.166 181.348 47.166H178.802ZM184.74 47.166V40.8367H185.746V47.166H184.74ZM181.257 46.3276C181.691 46.3276 182.045 46.2528 182.319 46.1033C182.593 45.9458 182.73 45.6742 182.73 45.2885C182.73 44.9028 182.605 44.643 182.353 44.5091C182.102 44.3674 181.74 44.2966 181.268 44.2966H179.807V46.3276H181.257Z" fill="#344860" stroke="#344860" stroke-width="2" mask="url(#path-2-inside-1)"/>
<path d="M110.439 21.5142H93.5531V18.5677L109.939 18.5972H109.94C110.873 18.5972 111.667 18.3782 112.242 17.8617L112.243 17.8607C112.859 17.3035 113.112 16.4608 113.112 15.4555C113.112 14.4572 112.862 13.6197 112.243 13.0801C111.669 12.5436 110.874 12.3138 109.94 12.3138H99.426C97.3347 12.3138 95.7748 11.7988 94.6797 10.8327C93.6198 9.86072 93.0538 8.41439 93.0538 6.40688C93.0538 4.39682 93.6211 2.9624 94.6794 2.01163L94.6799 2.01123C95.7752 1.02493 97.3348 0.5 99.426 0.5H115.431V3.44642L99.9263 3.417H99.9253C99.0091 3.417 98.2241 3.63715 97.636 4.14144C97.0099 4.65696 96.7528 5.45655 96.7528 6.40688C96.7528 7.36187 97.0121 8.16515 97.6312 8.69863L97.6311 8.69875L97.6409 8.70675C98.2292 9.18829 99.0121 9.39676 99.9253 9.39676H110.439C112.529 9.39676 114.075 9.93081 115.15 10.9325L115.15 10.9326L115.156 10.9384C116.233 11.9084 116.811 13.3825 116.811 15.4555C116.811 17.5059 116.234 18.9835 115.153 19.9756L115.153 19.9756L115.15 19.9784C114.075 20.9801 112.529 21.5142 110.439 21.5142ZM122.725 9.2166H118.849V6.7247H122.725H123.225V6.2247V1.92713H126.483V6.2247V6.7247H126.983H132.768V9.2166H126.983H126.483V9.7166V16.5182C126.483 17.2066 126.647 17.8158 127.062 18.252C127.481 18.6929 128.075 18.8704 128.746 18.8704H133.591V21.3623H127.688C126.064 21.3623 124.972 20.948 124.299 20.2198C123.596 19.4388 123.225 18.403 123.225 17.0648V9.7166V9.2166H122.725ZM136.779 17.0648V6.7247H140.038V16.5486C140.038 17.2288 140.202 17.8316 140.619 18.2626C141.039 18.6967 141.631 18.8704 142.3 18.8704H150.171H150.671V18.3704V6.7247H154.076V23.8968C154.076 25.2367 153.704 26.2601 153.004 27.0193L153.004 27.0193L153 27.0236C152.327 27.7709 151.235 28.1943 149.613 28.1943H140.186V25.7024H148.555C149.226 25.7024 149.82 25.5249 150.239 25.084C150.654 24.6478 150.817 24.0386 150.817 23.3502V21.8623V21.3623H150.317H141.243C139.6 21.3623 138.5 20.9387 137.828 20.1939C137.141 19.4118 136.779 18.3839 136.779 17.0648ZM167.255 8.47713L167.258 8.47459C168.608 7.22754 170.519 6.57287 173.057 6.57287H180.399C182.045 6.57287 183.214 6.97851 183.991 7.71176L183.991 7.71186L183.999 7.71947C184.789 8.43125 185.215 9.47491 185.215 10.9312C185.215 12.4282 184.8 13.4636 184.052 14.1343C183.293 14.8144 182.106 15.1984 180.399 15.1984H169.298H168.677L168.809 15.8051C169.034 16.8355 169.502 17.6579 170.245 18.2161C170.984 18.7706 171.937 19.0223 173.057 19.0223H184.451V21.5142H173.057C170.518 21.5142 168.607 20.8691 167.257 19.6416C165.921 18.4067 165.216 16.5748 165.216 14.0587C165.216 11.5197 165.922 9.69021 167.255 8.47713ZM168.844 12.0776L168.676 12.7065H169.327H180.193C180.692 12.7065 181.142 12.548 181.471 12.1819C181.812 11.8242 181.956 11.3561 181.956 10.8401C181.956 10.3391 181.832 9.87134 181.496 9.53179C181.159 9.19133 180.693 9.06478 180.193 9.06478H173.057C171.978 9.06478 171.052 9.3004 170.323 9.81718C169.588 10.3376 169.103 11.1073 168.844 12.0776ZM158.319 21.3623V0.651822H161.577V21.3623H158.319Z" fill="#344860" stroke="#344860"/>
<path d="M0.362061 21.8624L9.81869 0.151855H17.0727L26.5293 21.8624H21.4192L19.4222 17.2774H7.46922L5.47217 21.8624H0.362061ZM9.17259 13.33H17.7188L13.6366 3.9474H13.2548L9.17259 13.33ZM46.1727 28.6944V6.22473H35.3064C32.6828 6.22473 30.6368 6.89275 29.1684 8.22878C27.7 9.56481 26.9658 11.498 26.9658 14.0284C26.9658 16.579 27.7 18.5223 29.1684 19.8583C30.6368 21.1944 32.6828 21.8624 35.3064 21.8624H41.9143V28.6944H46.1727ZM35.3064 9.71663H41.9143V18.3705H35.3064C34.0338 18.3705 33.0548 18.0162 32.3696 17.3077C31.7039 16.579 31.371 15.4859 31.371 14.0284C31.371 12.5911 31.7039 11.5183 32.3696 10.8097C33.0548 10.081 34.0338 9.71663 35.3064 9.71663ZM54.2237 21.8624C52.5008 21.8624 51.238 21.417 50.4352 20.5264C49.6521 19.6357 49.2605 18.4818 49.2605 17.0648V6.22473H53.5189V16.5486C53.5189 17.7632 54.1063 18.3705 55.281 18.3705H61.3896C62.5644 18.3705 63.1517 17.7632 63.1517 16.5486V6.22473H67.4102V17.0648C67.4102 18.4818 67.0088 19.6357 66.2061 20.5264C65.4229 21.417 64.1698 21.8624 62.4469 21.8624H54.2237ZM74.5108 21.8624C72.9249 21.8624 71.711 21.4474 70.8691 20.6174C70.0272 19.7875 69.6063 18.6033 69.6063 17.0648C69.6063 15.5466 70.0272 14.3725 70.8691 13.5425C71.711 12.7126 72.9249 12.2976 74.5108 12.2976H85.7883V11.5689C85.7883 10.334 85.2009 9.71663 84.0262 9.71663H71.5739V6.22473H85.1422C86.9238 6.22473 88.1867 6.64983 88.9307 7.50003C89.6747 8.32999 90.0467 9.50408 90.0467 11.0223V21.8624H74.5108ZM75.2744 18.3705H85.7883V15.7895H75.2744C74.9024 15.7895 74.6087 15.911 74.3933 16.1539C74.1975 16.3766 74.0996 16.6802 74.0996 17.0648C74.0996 17.4494 74.1975 17.7632 74.3933 18.0061C74.6087 18.249 74.9024 18.3705 75.2744 18.3705Z" fill="#2289FF"/>
</svg>
