<svg width="196" height="196" viewBox="0 0 196 196" fill="none" xmlns="http://www.w3.org/2000/svg">
<path d="M70 24.5C70 26.433 68.433 28 66.5 28C64.567 28 63 26.433 63 24.5C63 22.567 64.567 21 66.5 21C68.433 21 70 22.567 70 24.5Z" fill="#EBEBEB"/>
<path d="M70 3.5C70 5.433 68.433 7 66.5 7C64.567 7 63 5.433 63 3.5C63 1.567 64.567 0 66.5 0C68.433 0 70 1.567 70 3.5Z" fill="#EBEBEB"/>
<path d="M70 192.5C70 194.433 68.433 196 66.5 196C64.567 196 63 194.433 63 192.5C63 190.567 64.567 189 66.5 189C68.433 189 70 190.567 70 192.5Z" fill="#EBEBEB"/>
<path d="M70 45.5C70 47.433 68.433 49 66.5 49C64.567 49 63 47.433 63 45.5C63 43.567 64.567 42 66.5 42C68.433 42 70 43.567 70 45.5Z" fill="#EBEBEB"/>
<path d="M70 66.5C70 68.433 68.433 70 66.5 70C64.567 70 63 68.433 63 66.5C63 64.567 64.567 63 66.5 63C68.433 63 70 64.567 70 66.5Z" fill="#EBEBEB"/>
<path d="M70 87.5C70 89.433 68.433 91 66.5 91C64.567 91 63 89.433 63 87.5C63 85.567 64.567 84 66.5 84C68.433 84 70 85.567 70 87.5Z" fill="#EBEBEB"/>
<path d="M70 108.5C70 110.433 68.433 112 66.5 112C64.567 112 63 110.433 63 108.5C63 106.567 64.567 105 66.5 105C68.433 105 70 106.567 70 108.5Z" fill="#EBEBEB"/>
<path d="M70 129.5C70 131.433 68.433 133 66.5 133C64.567 133 63 131.433 63 129.5C63 127.567 64.567 126 66.5 126C68.433 126 70 127.567 70 129.5Z" fill="#EBEBEB"/>
<path d="M70 150.5C70 152.433 68.433 154 66.5 154C64.567 154 63 152.433 63 150.5C63 148.567 64.567 147 66.5 147C68.433 147 70 148.567 70 150.5Z" fill="#EBEBEB"/>
<path d="M70 171.5C70 173.433 68.433 175 66.5 175C64.567 175 63 173.433 63 171.5C63 169.567 64.567 168 66.5 168C68.433 168 70 169.567 70 171.5Z" fill="#EBEBEB"/>
<path d="M112 24.5C112 26.433 110.433 28 108.5 28C106.567 28 105 26.433 105 24.5C105 22.567 106.567 21 108.5 21C110.433 21 112 22.567 112 24.5Z" fill="#EBEBEB"/>
<path d="M112 192.5C112 194.433 110.433 196 108.5 196C106.567 196 105 194.433 105 192.5C105 190.567 106.567 189 108.5 189C110.433 189 112 190.567 112 192.5Z" fill="#EBEBEB"/>
<path d="M112 45.5C112 47.433 110.433 49 108.5 49C106.567 49 105 47.433 105 45.5C105 43.567 106.567 42 108.5 42C110.433 42 112 43.567 112 45.5Z" fill="#EBEBEB"/>
<path d="M112 66.5C112 68.433 110.433 70 108.5 70C106.567 70 105 68.433 105 66.5C105 64.567 106.567 63 108.5 63C110.433 63 112 64.567 112 66.5Z" fill="#EBEBEB"/>
<path d="M112 87.5C112 89.433 110.433 91 108.5 91C106.567 91 105 89.433 105 87.5C105 85.567 106.567 84 108.5 84C110.433 84 112 85.567 112 87.5Z" fill="#EBEBEB"/>
<path d="M112 108.5C112 110.433 110.433 112 108.5 112C106.567 112 105 110.433 105 108.5C105 106.567 106.567 105 108.5 105C110.433 105 112 106.567 112 108.5Z" fill="#EBEBEB"/>
<path d="M112 129.5C112 131.433 110.433 133 108.5 133C106.567 133 105 131.433 105 129.5C105 127.567 106.567 126 108.5 126C110.433 126 112 127.567 112 129.5Z" fill="#EBEBEB"/>
<path d="M112 150.5C112 152.433 110.433 154 108.5 154C106.567 154 105 152.433 105 150.5C105 148.567 106.567 147 108.5 147C110.433 147 112 148.567 112 150.5Z" fill="#EBEBEB"/>
<path d="M112 171.5C112 173.433 110.433 175 108.5 175C106.567 175 105 173.433 105 171.5C105 169.567 106.567 168 108.5 168C110.433 168 112 169.567 112 171.5Z" fill="#EBEBEB"/>
<path d="M154 24.5C154 26.433 152.433 28 150.5 28C148.567 28 147 26.433 147 24.5C147 22.567 148.567 21 150.5 21C152.433 21 154 22.567 154 24.5Z" fill="#EBEBEB"/>
<path d="M154 45.5C154 47.433 152.433 49 150.5 49C148.567 49 147 47.433 147 45.5C147 43.567 148.567 42 150.5 42C152.433 42 154 43.567 154 45.5Z" fill="#EBEBEB"/>
<path d="M175 45.5C175 47.433 173.433 49 171.5 49C169.567 49 168 47.433 168 45.5C168 43.567 169.567 42 171.5 42C173.433 42 175 43.567 175 45.5Z" fill="#EBEBEB"/>
<path d="M28 45.5C28 47.433 26.433 49 24.5 49C22.567 49 21 47.433 21 45.5C21 43.567 22.567 42 24.5 42C26.433 42 28 43.567 28 45.5Z" fill="#EBEBEB"/>
<path d="M154 66.5C154 68.433 152.433 70 150.5 70C148.567 70 147 68.433 147 66.5C147 64.567 148.567 63 150.5 63C152.433 63 154 64.567 154 66.5Z" fill="#EBEBEB"/>
<path d="M175 66.5C175 68.433 173.433 70 171.5 70C169.567 70 168 68.433 168 66.5C168 64.567 169.567 63 171.5 63C173.433 63 175 64.567 175 66.5Z" fill="#EBEBEB"/>
<path d="M28 66.5C28 68.433 26.433 70 24.5 70C22.567 70 21 68.433 21 66.5C21 64.567 22.567 63 24.5 63C26.433 63 28 64.567 28 66.5Z" fill="#EBEBEB"/>
<path d="M7 66.5C7 68.433 5.433 70 3.5 70C1.567 70 0 68.433 0 66.5C0 64.567 1.567 63 3.5 63C5.433 63 7 64.567 7 66.5Z" fill="#EBEBEB"/>
<path d="M196 66.5C196 68.433 194.433 70 192.5 70C190.567 70 189 68.433 189 66.5C189 64.567 190.567 63 192.5 63C194.433 63 196 64.567 196 66.5Z" fill="#EBEBEB"/>
<path d="M154 87.5C154 89.433 152.433 91 150.5 91C148.567 91 147 89.433 147 87.5C147 85.567 148.567 84 150.5 84C152.433 84 154 85.567 154 87.5Z" fill="#EBEBEB"/>
<path d="M175 87.5C175 89.433 173.433 91 171.5 91C169.567 91 168 89.433 168 87.5C168 85.567 169.567 84 171.5 84C173.433 84 175 85.567 175 87.5Z" fill="#EBEBEB"/>
<path d="M28 87.5C28 89.433 26.433 91 24.5 91C22.567 91 21 89.433 21 87.5C21 85.567 22.567 84 24.5 84C26.433 84 28 85.567 28 87.5Z" fill="#EBEBEB"/>
<path d="M7 87.5C7 89.433 5.433 91 3.5 91C1.567 91 0 89.433 0 87.5C0 85.567 1.567 84 3.5 84C5.433 84 7 85.567 7 87.5Z" fill="#EBEBEB"/>
<path d="M196 87.5C196 89.433 194.433 91 192.5 91C190.567 91 189 89.433 189 87.5C189 85.567 190.567 84 192.5 84C194.433 84 196 85.567 196 87.5Z" fill="#EBEBEB"/>
<path d="M154 108.5C154 110.433 152.433 112 150.5 112C148.567 112 147 110.433 147 108.5C147 106.567 148.567 105 150.5 105C152.433 105 154 106.567 154 108.5Z" fill="#EBEBEB"/>
<path d="M175 108.5C175 110.433 173.433 112 171.5 112C169.567 112 168 110.433 168 108.5C168 106.567 169.567 105 171.5 105C173.433 105 175 106.567 175 108.5Z" fill="#EBEBEB"/>
<path d="M28 108.5C28 110.433 26.433 112 24.5 112C22.567 112 21 110.433 21 108.5C21 106.567 22.567 105 24.5 105C26.433 105 28 106.567 28 108.5Z" fill="#EBEBEB"/>
<path d="M7 108.5C7 110.433 5.433 112 3.5 112C1.567 112 0 110.433 0 108.5C0 106.567 1.567 105 3.5 105C5.433 105 7 106.567 7 108.5Z" fill="#EBEBEB"/>
<path d="M196 108.5C196 110.433 194.433 112 192.5 112C190.567 112 189 110.433 189 108.5C189 106.567 190.567 105 192.5 105C194.433 105 196 106.567 196 108.5Z" fill="#EBEBEB"/>
<path d="M154 129.5C154 131.433 152.433 133 150.5 133C148.567 133 147 131.433 147 129.5C147 127.567 148.567 126 150.5 126C152.433 126 154 127.567 154 129.5Z" fill="#EBEBEB"/>
<path d="M175 129.5C175 131.433 173.433 133 171.5 133C169.567 133 168 131.433 168 129.5C168 127.567 169.567 126 171.5 126C173.433 126 175 127.567 175 129.5Z" fill="#EBEBEB"/>
<path d="M28 129.5C28 131.433 26.433 133 24.5 133C22.567 133 21 131.433 21 129.5C21 127.567 22.567 126 24.5 126C26.433 126 28 127.567 28 129.5Z" fill="#EBEBEB"/>
<path d="M7 129.5C7 131.433 5.433 133 3.5 133C1.567 133 0 131.433 0 129.5C0 127.567 1.567 126 3.5 126C5.433 126 7 127.567 7 129.5Z" fill="#EBEBEB"/>
<path d="M196 129.5C196 131.433 194.433 133 192.5 133C190.567 133 189 131.433 189 129.5C189 127.567 190.567 126 192.5 126C194.433 126 196 127.567 196 129.5Z" fill="#EBEBEB"/>
<path d="M154 150.5C154 152.433 152.433 154 150.5 154C148.567 154 147 152.433 147 150.5C147 148.567 148.567 147 150.5 147C152.433 147 154 148.567 154 150.5Z" fill="#EBEBEB"/>
<path d="M175 150.5C175 152.433 173.433 154 171.5 154C169.567 154 168 152.433 168 150.5C168 148.567 169.567 147 171.5 147C173.433 147 175 148.567 175 150.5Z" fill="#EBEBEB"/>
<path d="M28 150.5C28 152.433 26.433 154 24.5 154C22.567 154 21 152.433 21 150.5C21 148.567 22.567 147 24.5 147C26.433 147 28 148.567 28 150.5Z" fill="#EBEBEB"/>
<path d="M154 171.5C154 173.433 152.433 175 150.5 175C148.567 175 147 173.433 147 171.5C147 169.567 148.567 168 150.5 168C152.433 168 154 169.567 154 171.5Z" fill="#EBEBEB"/>
<path d="M49 24.5C49 26.433 47.433 28 45.5 28C43.567 28 42 26.433 42 24.5C42 22.567 43.567 21 45.5 21C47.433 21 49 22.567 49 24.5Z" fill="#EBEBEB"/>
<path d="M49 45.5C49 47.433 47.433 49 45.5 49C43.567 49 42 47.433 42 45.5C42 43.567 43.567 42 45.5 42C47.433 42 49 43.567 49 45.5Z" fill="#EBEBEB"/>
<path d="M49 66.5C49 68.433 47.433 70 45.5 70C43.567 70 42 68.433 42 66.5C42 64.567 43.567 63 45.5 63C47.433 63 49 64.567 49 66.5Z" fill="#EBEBEB"/>
<path d="M49 87.5C49 89.433 47.433 91 45.5 91C43.567 91 42 89.433 42 87.5C42 85.567 43.567 84 45.5 84C47.433 84 49 85.567 49 87.5Z" fill="#EBEBEB"/>
<path d="M49 108.5C49 110.433 47.433 112 45.5 112C43.567 112 42 110.433 42 108.5C42 106.567 43.567 105 45.5 105C47.433 105 49 106.567 49 108.5Z" fill="#EBEBEB"/>
<path d="M49 129.5C49 131.433 47.433 133 45.5 133C43.567 133 42 131.433 42 129.5C42 127.567 43.567 126 45.5 126C47.433 126 49 127.567 49 129.5Z" fill="#EBEBEB"/>
<path d="M49 150.5C49 152.433 47.433 154 45.5 154C43.567 154 42 152.433 42 150.5C42 148.567 43.567 147 45.5 147C47.433 147 49 148.567 49 150.5Z" fill="#EBEBEB"/>
<path d="M49 171.5C49 173.433 47.433 175 45.5 175C43.567 175 42 173.433 42 171.5C42 169.567 43.567 168 45.5 168C47.433 168 49 169.567 49 171.5Z" fill="#EBEBEB"/>
<path d="M91 24.5C91 26.433 89.433 28 87.5 28C85.567 28 84 26.433 84 24.5C84 22.567 85.567 21 87.5 21C89.433 21 91 22.567 91 24.5Z" fill="#EBEBEB"/>
<path d="M91 3.5C91 5.433 89.433 7 87.5 7C85.567 7 84 5.433 84 3.5C84 1.567 85.567 0 87.5 0C89.433 0 91 1.567 91 3.5Z" fill="#EBEBEB"/>
<path d="M91 192.5C91 194.433 89.433 196 87.5 196C85.567 196 84 194.433 84 192.5C84 190.567 85.567 189 87.5 189C89.433 189 91 190.567 91 192.5Z" fill="#EBEBEB"/>
<path d="M91 45.5C91 47.433 89.433 49 87.5 49C85.567 49 84 47.433 84 45.5C84 43.567 85.567 42 87.5 42C89.433 42 91 43.567 91 45.5Z" fill="#EBEBEB"/>
<path d="M91 66.5C91 68.433 89.433 70 87.5 70C85.567 70 84 68.433 84 66.5C84 64.567 85.567 63 87.5 63C89.433 63 91 64.567 91 66.5Z" fill="#EBEBEB"/>
<path d="M91 87.5C91 89.433 89.433 91 87.5 91C85.567 91 84 89.433 84 87.5C84 85.567 85.567 84 87.5 84C89.433 84 91 85.567 91 87.5Z" fill="#EBEBEB"/>
<path d="M91 108.5C91 110.433 89.433 112 87.5 112C85.567 112 84 110.433 84 108.5C84 106.567 85.567 105 87.5 105C89.433 105 91 106.567 91 108.5Z" fill="#EBEBEB"/>
<path d="M91 129.5C91 131.433 89.433 133 87.5 133C85.567 133 84 131.433 84 129.5C84 127.567 85.567 126 87.5 126C89.433 126 91 127.567 91 129.5Z" fill="#EBEBEB"/>
<path d="M91 150.5C91 152.433 89.433 154 87.5 154C85.567 154 84 152.433 84 150.5C84 148.567 85.567 147 87.5 147C89.433 147 91 148.567 91 150.5Z" fill="#EBEBEB"/>
<path d="M91 171.5C91 173.433 89.433 175 87.5 175C85.567 175 84 173.433 84 171.5C84 169.567 85.567 168 87.5 168C89.433 168 91 169.567 91 171.5Z" fill="#EBEBEB"/>
<path d="M133 24.5C133 26.433 131.433 28 129.5 28C127.567 28 126 26.433 126 24.5C126 22.567 127.567 21 129.5 21C131.433 21 133 22.567 133 24.5Z" fill="#EBEBEB"/>
<path d="M133 192.5C133 194.433 131.433 196 129.5 196C127.567 196 126 194.433 126 192.5C126 190.567 127.567 189 129.5 189C131.433 189 133 190.567 133 192.5Z" fill="#EBEBEB"/>
<path d="M133 45.5C133 47.433 131.433 49 129.5 49C127.567 49 126 47.433 126 45.5C126 43.567 127.567 42 129.5 42C131.433 42 133 43.567 133 45.5Z" fill="#EBEBEB"/>
<path d="M133 66.5C133 68.433 131.433 70 129.5 70C127.567 70 126 68.433 126 66.5C126 64.567 127.567 63 129.5 63C131.433 63 133 64.567 133 66.5Z" fill="#EBEBEB"/>
<path d="M133 87.5C133 89.433 131.433 91 129.5 91C127.567 91 126 89.433 126 87.5C126 85.567 127.567 84 129.5 84C131.433 84 133 85.567 133 87.5Z" fill="#EBEBEB"/>
<path d="M133 108.5C133 110.433 131.433 112 129.5 112C127.567 112 126 110.433 126 108.5C126 106.567 127.567 105 129.5 105C131.433 105 133 106.567 133 108.5Z" fill="#EBEBEB"/>
<path d="M133 129.5C133 131.433 131.433 133 129.5 133C127.567 133 126 131.433 126 129.5C126 127.567 127.567 126 129.5 126C131.433 126 133 127.567 133 129.5Z" fill="#EBEBEB"/>
<path d="M133 150.5C133 152.433 131.433 154 129.5 154C127.567 154 126 152.433 126 150.5C126 148.567 127.567 147 129.5 147C131.433 147 133 148.567 133 150.5Z" fill="#EBEBEB"/>
<path d="M133 171.5C133 173.433 131.433 175 129.5 175C127.567 175 126 173.433 126 171.5C126 169.567 127.567 168 129.5 168C131.433 168 133 169.567 133 171.5Z" fill="#EBEBEB"/>
</svg>
