<svg width="40" height="40" viewBox="0 0 40 40" fill="none" xmlns="http://www.w3.org/2000/svg">
<rect width="40" height="40" rx="6" fill="url(#paint0_radial)"/>
<rect width="40" height="40" rx="6" fill="url(#paint1_radial)"/>
<rect width="40" height="40" rx="6" fill="url(#paint2_radial)"/>
<path d="M29.9999 12.1429C29.9999 13.3263 29.0406 14.2857 27.8571 14.2857C26.6736 14.2857 25.7142 13.3263 25.7142 12.1429C25.7142 10.9594 26.6736 10 27.8571 10C29.0406 10 29.9999 10.9594 29.9999 12.1429Z" fill="white"/>
<path fill-rule="evenodd" clip-rule="evenodd" d="M19.9999 27.1429C23.9448 27.1429 27.1428 23.9449 27.1428 20C27.1428 16.0551 23.9448 12.8572 19.9999 12.8572C16.0551 12.8572 12.8571 16.0551 12.8571 20C12.8571 23.9449 16.0551 27.1429 19.9999 27.1429ZM19.9999 24.2857C22.3669 24.2857 24.2857 22.3669 24.2857 20C24.2857 17.6331 22.3669 15.7143 19.9999 15.7143C17.633 15.7143 15.7142 17.6331 15.7142 20C15.7142 22.3669 17.633 24.2857 19.9999 24.2857Z" fill="white"/>
<path fill-rule="evenodd" clip-rule="evenodd" d="M5.71423 19.4286C5.71423 14.6281 5.71423 12.2279 6.64846 10.3944C7.47023 8.78156 8.7815 7.4703 10.3943 6.64852C12.2278 5.71429 14.6281 5.71429 19.4285 5.71429H20.5714C25.3718 5.71429 27.7721 5.71429 29.6056 6.64852C31.2184 7.4703 32.5297 8.78156 33.3514 10.3944C34.2857 12.2279 34.2857 14.6281 34.2857 19.4286V20.5714C34.2857 25.3719 34.2857 27.7721 33.3514 29.6056C32.5297 31.2185 31.2184 32.5297 29.6056 33.3515C27.7721 34.2857 25.3718 34.2857 20.5714 34.2857H19.4285C14.6281 34.2857 12.2278 34.2857 10.3943 33.3515C8.7815 32.5297 7.47023 31.2185 6.64846 29.6056C5.71423 27.7721 5.71423 25.3719 5.71423 20.5714V19.4286ZM19.4285 8.57144H20.5714C23.0187 8.57144 24.6824 8.57366 25.9684 8.67873C27.221 8.78107 27.8616 8.96657 28.3085 9.19426C29.3837 9.74211 30.2579 10.6163 30.8057 11.6915C31.0334 12.1383 31.2189 12.7789 31.3212 14.0315C31.4263 15.3175 31.4285 16.9812 31.4285 19.4286V20.5714C31.4285 23.0188 31.4263 24.6825 31.3212 25.9685C31.2189 27.2211 31.0334 27.8617 30.8057 28.3085C30.2579 29.3837 29.3837 30.2579 28.3085 30.8058C27.8616 31.0334 27.221 31.2189 25.9684 31.3213C24.6824 31.4264 23.0187 31.4286 20.5714 31.4286H19.4285C16.9811 31.4286 15.3175 31.4264 14.0315 31.3213C12.7789 31.2189 12.1383 31.0334 11.6914 30.8058C10.6162 30.2579 9.74204 29.3837 9.1942 28.3085C8.96651 27.8617 8.78101 27.2211 8.67867 25.9685C8.5736 24.6825 8.57138 23.0188 8.57138 20.5714V19.4286C8.57138 16.9812 8.5736 15.3175 8.67867 14.0315C8.78101 12.7789 8.96651 12.1383 9.1942 11.6915C9.74204 10.6163 10.6162 9.74211 11.6914 9.19426C12.1383 8.96657 12.7789 8.78107 14.0315 8.67873C15.3175 8.57366 16.9811 8.57144 19.4285 8.57144Z" fill="white"/>
<defs>
<radialGradient id="paint0_radial" cx="0" cy="0" r="1" gradientUnits="userSpaceOnUse" gradientTransform="translate(14.2857 30) rotate(-55.3758) scale(36.4566)">
<stop stop-color="#B13589"/>
<stop offset="0.79309" stop-color="#C62F94"/>
<stop offset="1" stop-color="#8A3AC8"/>
</radialGradient>
<radialGradient id="paint1_radial" cx="0" cy="0" r="1" gradientUnits="userSpaceOnUse" gradientTransform="translate(12.8571 41.4286) rotate(-65.1363) scale(32.2775)">
<stop stop-color="#E0E8B7"/>
<stop offset="0.444662" stop-color="#FB8A2E"/>
<stop offset="0.71474" stop-color="#E2425C"/>
<stop offset="1" stop-color="#E2425C" stop-opacity="0"/>
</radialGradient>
<radialGradient id="paint2_radial" cx="0" cy="0" r="1" gradientUnits="userSpaceOnUse" gradientTransform="translate(-2.14285 1.42857) rotate(-8.1301) scale(55.5584 11.8834)">
<stop offset="0.156701" stop-color="#406ADC"/>
<stop offset="0.467799" stop-color="#6A45BE"/>
<stop offset="1" stop-color="#6A45BE" stop-opacity="0"/>
</radialGradient>
</defs>
</svg>
