<svg width="23" height="23" viewBox="0 0 23 23" fill="none" xmlns="http://www.w3.org/2000/svg">
<path d="M13.9381 5.03595C14.9149 5.22652 15.8125 5.70421 16.5162 6.40789C17.2199 7.11156 17.6976 8.00921 17.8881 8.98595L13.9381 5.03595ZM13.9381 1.03595C15.9674 1.26139 17.8597 2.17012 19.3044 3.61296C20.749 5.05579 21.6601 6.94696 21.8881 8.97595L13.9381 1.03595ZM20.8881 16.9559V19.9559C20.8892 20.2345 20.8322 20.5101 20.7206 20.7653C20.6091 21.0205 20.4454 21.2495 20.2402 21.4378C20.035 21.6261 19.7927 21.7694 19.5289 21.8587C19.265 21.9479 18.9855 21.981 18.7081 21.9559C15.631 21.6216 12.6751 20.5701 10.0781 18.886C7.66194 17.3506 5.61345 15.3021 4.07812 12.886C2.38809 10.2772 1.33636 7.30694 1.00812 4.21595C0.983127 3.93942 1.01599 3.66071 1.10462 3.39757C1.19324 3.13444 1.33569 2.89264 1.52288 2.68757C1.71008 2.4825 1.93792 2.31866 2.19191 2.20647C2.44589 2.09428 2.72046 2.03621 2.99812 2.03595H5.99812C6.48342 2.03117 6.95391 2.20303 7.32188 2.51948C7.68985 2.83594 7.93019 3.2754 7.99812 3.75595C8.12474 4.71602 8.35957 5.65868 8.69812 6.56595C8.83266 6.92387 8.86178 7.31286 8.78202 7.68683C8.70227 8.0608 8.51698 8.40406 8.24812 8.67595L6.97812 9.94595C8.40167 12.4495 10.4746 14.5224 12.9781 15.9459L14.2481 14.676C14.52 14.4071 14.8633 14.2218 15.2372 14.142C15.6112 14.0623 16.0002 14.0914 16.3581 14.2259C17.2654 14.5645 18.2081 14.7993 19.1681 14.926C19.6539 14.9945 20.0975 15.2392 20.4146 15.6134C20.7318 15.9877 20.9003 16.4655 20.8881 16.9559Z" stroke="#2289FF" stroke-width="2" stroke-linecap="round" stroke-linejoin="round"/>
</svg>
