<svg width="30" height="46" viewBox="0 0 30 46" fill="none" xmlns="http://www.w3.org/2000/svg">
<path d="M7.42 26.78L5 45L15 39L25 45L22.58 26.76" stroke="#2289FF" stroke-width="2" stroke-linecap="round" stroke-linejoin="round"/>
<path d="M15 29C22.732 29 29 22.732 29 15C29 7.26801 22.732 1 15 1C7.26801 1 1 7.26801 1 15C1 22.732 7.26801 29 15 29Z" stroke="#2289FF" stroke-width="2" stroke-linecap="round" stroke-linejoin="round"/>
<path d="M5.78979 19.8572V18.7258L8.85722 15.5955C9.60313 14.8496 9.97608 14.2043 9.97608 13.6595C9.97608 13.2321 9.84617 12.901 9.58636 12.6664C9.33493 12.4233 9.01227 12.3018 8.61836 12.3018C7.88084 12.3018 7.33608 12.6664 6.98408 13.3955L5.76465 12.6789C6.04122 12.0923 6.43093 11.6481 6.93379 11.3464C7.43665 11.0447 7.99398 10.8938 8.60579 10.8938C9.37684 10.8938 10.0389 11.1368 10.5921 11.6229C11.1452 12.109 11.4218 12.7711 11.4218 13.6092C11.4218 14.506 10.9231 15.4614 9.92579 16.4755L7.93951 18.4618H11.5852V19.8572H5.78979Z" fill="#2289FF"/>
<path d="M18.4308 18.7761C17.8273 19.6058 16.9809 20.0207 15.8913 20.0207C14.8018 20.0207 13.9511 19.6058 13.3393 18.7761C12.7359 17.9464 12.4342 16.8401 12.4342 15.4572C12.4342 14.0744 12.7359 12.9681 13.3393 12.1384C13.9511 11.3087 14.8018 10.8938 15.8913 10.8938C16.9809 10.8938 17.8273 11.3087 18.4308 12.1384C19.0426 12.9681 19.3485 14.0744 19.3485 15.4572C19.3485 16.8401 19.0426 17.9464 18.4308 18.7761ZM15.8913 18.6127C16.545 18.6127 17.0437 18.3403 17.3873 17.7955C17.7309 17.2508 17.9028 16.4713 17.9028 15.4572C17.9028 14.4431 17.7309 13.6637 17.3873 13.1189C17.0437 12.5742 16.545 12.3018 15.8913 12.3018C15.246 12.3018 14.7473 12.5742 14.3953 13.1189C14.0517 13.6637 13.8799 14.4431 13.8799 15.4572C13.8799 16.4713 14.0517 17.2508 14.3953 17.7955C14.7473 18.3403 15.246 18.6127 15.8913 18.6127Z" fill="#2289FF"/>
<path d="M26.0727 14.8161V16.0984H23.9481V18.2229H22.6659V16.0984H20.5413V14.8161H22.6659V12.6915H23.9481V14.8161H26.0727Z" fill="#2289FF"/>
</svg>
