<svg width="26" height="28" viewBox="0 0 26 28" fill="none" xmlns="http://www.w3.org/2000/svg">
<path d="M7.09674 26.9998H3.4387C2.79191 26.9998 2.17162 26.7259 1.71428 26.2383C1.25693 25.7507 1 25.0894 1 24.3999V15.2999C1 14.6104 1.25693 13.949 1.71428 13.4614C2.17162 12.9739 2.79191 12.6999 3.4387 12.6999H7.09674M15.6322 10.0999V4.89998C15.6322 3.86564 15.2468 2.87366 14.5608 2.14228C13.8747 1.41089 12.9443 1 11.9741 1L7.09674 12.6999V26.9998H20.851C21.4391 27.0069 22.0098 26.7872 22.458 26.381C22.9061 25.9749 23.2015 25.4098 23.2897 24.7898L24.9724 13.0899C25.0254 12.7173 25.0019 12.3368 24.9033 11.9749C24.8047 11.6129 24.6335 11.2781 24.4016 10.9937C24.1696 10.7093 23.8824 10.4821 23.5599 10.3277C23.2373 10.1734 22.8872 10.0957 22.5337 10.0999H15.6322Z" stroke="#2289FF" stroke-width="2" stroke-linecap="round" stroke-linejoin="round"/>
</svg>
